<svg width="1512" height="982" viewBox="0 0 1512 982" fill="none" xmlns="http://www.w3.org/2000/svg">
<path d="M399.026 615.36C402.269 612.644 404.351 609.471 405.434 606.188C406.323 603.491 408.236 601.169 410.742 599.648C410.917 599.541 411.096 599.438 411.277 599.339L418.294 595.521C422.273 593.356 424.061 588.628 422.16 584.875C420.188 580.981 415.167 579.643 411.065 581.875L407.216 583.969C403.737 585.863 399.61 586.031 396.209 584.405C392.889 582.819 388.885 582.171 384.395 582.905C368.823 585.451 352.897 584.866 337.681 580.98C322.466 577.094 308.696 570.094 297.16 560.625C289.945 554.702 280.634 555.328 273.73 559.666C266.797 564.022 262.29 572.123 264.768 581.101C267.777 592.004 273.268 602.214 281.139 610.937C301.81 633.844 335.171 642.365 366.75 632.803C378.787 629.158 389.739 623.136 399.026 615.36Z" fill="#EEBF00"/>
<path d="M410.742 599.648C410.917 599.541 411.096 599.438 411.277 599.339L414.957 597.337L418.294 595.521C422.273 593.356 424.061 588.628 422.16 584.875C420.188 580.981 415.167 579.643 411.065 581.875L407.507 583.811L407.216 583.969C403.737 585.863 399.61 586.031 396.209 584.405C392.889 582.819 388.885 582.171 384.395 582.905C368.823 585.451 352.897 584.866 337.681 580.98C322.466 577.094 308.696 570.094 297.16 560.625C289.945 554.702 280.634 555.328 273.73 559.666C283.934 584.059 304.865 602.394 331.186 609.993C357.331 617.54 386.279 613.768 410.742 599.648Z" fill="#FFD422"/>
<path d="M420.137 594.693L423.474 592.877C427.453 590.712 429.241 585.985 427.34 582.231C425.368 578.337 420.347 576.999 416.245 579.231L412.687 581.167C413.902 586.281 416.466 590.936 420.137 594.693Z" fill="#AA6100"/>
<path d="M284.394 601.43C282.166 602.606 276.726 599.304 273.39 592.983C270.054 586.662 270.085 579.716 272.314 578.54C274.542 577.363 279.053 581.534 282.389 587.855C285.725 594.176 286.623 600.254 284.394 601.43Z" fill="white"/>
<path d="M377.675 589.422C377.712 587.599 382.04 585.319 387.644 585.432C393.248 585.544 398.006 588.005 397.969 589.828C397.933 591.651 393.36 593.038 387.756 592.925C382.152 592.813 377.639 591.244 377.675 589.422Z" fill="white" fill-opacity="0.85"/>
<path d="M428.817 282.216C429.066 277.994 428.186 274.302 426.54 271.262C425.188 268.764 424.812 265.78 425.423 262.913C425.466 262.712 425.514 262.512 425.566 262.312L427.602 254.588C428.757 250.207 426.544 245.663 422.509 244.471C418.323 243.234 413.906 245.969 412.715 250.484L411.598 254.722C410.589 258.552 407.879 261.67 404.364 263.029C400.932 264.355 397.713 266.825 395.167 270.595C386.336 283.67 374.984 294.856 361.718 303.26C348.452 311.664 333.911 316.879 319.108 318.776C309.849 319.962 303.917 327.165 302.336 335.164C300.749 343.197 303.55 352.034 311.782 356.39C321.779 361.682 332.974 364.691 344.721 364.949C375.568 365.626 404.655 347.2 419.364 317.665C424.97 306.407 428.103 294.308 428.817 282.216Z" fill="#EEBF00"/>
<path d="M425.423 262.913C425.466 262.712 425.513 262.512 425.566 262.312L426.634 258.26L427.602 254.588C428.757 250.207 426.544 245.663 422.509 244.471C418.323 243.234 413.906 245.969 412.715 250.484L411.683 254.401L411.598 254.722C410.589 258.552 407.879 261.67 404.364 263.029C400.932 264.355 397.713 266.825 395.167 270.595C386.336 283.67 374.984 294.856 361.718 303.26C348.452 311.664 333.911 316.879 319.108 318.776C309.849 319.962 303.917 327.165 302.336 335.164C327.083 344.476 354.783 341.826 378.369 327.89C401.797 314.047 418.913 290.398 425.423 262.913Z" fill="#FFD422"/>
<path d="M428.263 252.678L429.232 249.006C430.386 244.625 428.173 240.081 424.139 238.889C419.953 237.652 415.535 240.387 414.344 244.902L413.312 248.819C417.865 251.443 423.011 252.772 428.263 252.678Z" fill="#AA6100"/>
<path d="M340.037 356.058C339.363 358.487 333.229 360.179 326.341 358.269C319.453 356.36 314.421 351.571 315.095 349.143C315.768 346.715 321.897 346.294 328.784 348.204C335.672 350.114 340.71 353.63 340.037 356.058Z" fill="white"/>
<path d="M395.297 279.954C393.996 278.677 395.307 273.964 399.233 269.964C403.16 265.964 408.215 264.191 409.516 265.468C410.817 266.745 408.689 271.024 404.763 275.024C400.836 279.024 396.598 281.231 395.297 279.954Z" fill="white" fill-opacity="0.85"/>
<path d="M1170.46 708.147C1168.16 704.599 1165.26 702.148 1162.13 700.676C1159.56 699.466 1157.49 697.286 1156.28 694.615C1156.2 694.428 1156.12 694.238 1156.04 694.046L1153.1 686.619C1151.43 682.406 1146.96 680.059 1143 681.492C1138.9 682.978 1136.96 687.799 1138.68 692.141L1140.29 696.216C1141.75 699.899 1141.42 704.016 1139.39 707.194C1137.42 710.298 1136.29 714.195 1136.47 718.74C1137.11 734.506 1134.61 750.244 1128.91 764.877C1123.21 779.51 1114.59 792.331 1103.79 802.635C1097.04 809.08 1096.53 818.398 1100 825.777C1103.49 833.186 1110.98 838.641 1120.2 837.269C1131.38 835.602 1142.18 831.388 1151.8 824.631C1177.04 806.886 1189.53 774.802 1183.87 742.297C1181.71 729.907 1177.06 718.307 1170.46 708.147Z" fill="#EEBF00"/>
<path d="M1156.28 694.615C1156.2 694.428 1156.12 694.238 1156.04 694.046L1154.5 690.15L1153.1 686.619C1151.43 682.406 1146.96 680.059 1143 681.492C1138.9 682.978 1136.96 687.799 1138.68 692.141L1140.17 695.908L1140.29 696.216C1141.75 699.899 1141.42 704.016 1139.39 707.194C1137.42 710.298 1136.29 714.195 1136.47 718.74C1137.11 734.506 1134.61 750.244 1128.91 764.877C1123.21 779.51 1114.59 792.331 1103.79 802.635C1097.04 809.08 1096.53 818.398 1100 825.777C1125.45 818.602 1146.19 800.045 1156.92 774.838C1167.58 749.799 1167.34 720.607 1156.28 694.615Z" fill="#FFD422"/>
<path d="M1152.5 684.689L1151.1 681.157C1149.44 676.945 1144.96 674.598 1141 676.03C1136.9 677.516 1134.96 682.338 1136.68 686.68L1138.17 690.447C1143.4 689.86 1148.33 687.878 1152.5 684.689Z" fill="#AA6100"/>
<path d="M1142.75 820.248C1143.65 822.603 1139.71 827.603 1133.03 830.149C1126.36 832.695 1119.46 831.823 1118.57 829.469C1117.67 827.114 1122.36 823.141 1129.03 820.595C1135.71 818.049 1141.85 817.894 1142.75 820.248Z" fill="white"/>
<path d="M1142.13 726.2C1140.32 725.943 1138.58 721.37 1139.37 715.821C1140.16 710.272 1143.18 705.847 1144.99 706.104C1146.79 706.361 1147.62 711.068 1146.83 716.617C1146.04 722.166 1143.93 726.457 1142.13 726.2Z" fill="white" fill-opacity="0.85"/>
</svg>
