<svg width="155" height="23" viewBox="0 0 155 23" fill="none" xmlns="http://www.w3.org/2000/svg">
<path d="M2.74788 18.216C2.13988 18.216 1.67588 18.048 1.35588 17.712C1.03588 17.376 0.875875 16.904 0.875875 16.296V2.784C0.875875 2.176 1.03588 1.704 1.35588 1.368C1.67588 1.032 2.13988 0.863999 2.74788 0.863999C3.33988 0.863999 3.79588 1.032 4.11588 1.368C4.43588 1.704 4.59588 2.176 4.59588 2.784V16.296C4.59588 16.904 4.43588 17.376 4.11588 17.712C3.81188 18.048 3.35588 18.216 2.74788 18.216ZM13.4729 18.264C12.3689 18.264 11.4409 18.08 10.6889 17.712C9.95288 17.344 9.40088 16.808 9.03288 16.104C8.68088 15.4 8.50488 14.512 8.50488 13.44V8.928H7.49688C7.04888 8.928 6.69688 8.808 6.44088 8.568C6.20087 8.328 6.08087 8 6.08087 7.584C6.08087 7.136 6.20087 6.8 6.44088 6.576C6.69688 6.336 7.04888 6.216 7.49688 6.216H8.50488V4.392C8.50488 3.784 8.66488 3.328 8.98488 3.024C9.30488 2.704 9.75288 2.544 10.3289 2.544C10.9209 2.544 11.3689 2.704 11.6729 3.024C11.9769 3.328 12.1289 3.784 12.1289 4.392V6.216H14.4089C14.8569 6.216 15.2009 6.336 15.4409 6.576C15.6809 6.8 15.8009 7.136 15.8009 7.584C15.8009 8 15.6809 8.328 15.4409 8.568C15.2009 8.808 14.8569 8.928 14.4089 8.928H12.1289V13.296C12.1289 13.968 12.2809 14.472 12.5849 14.808C12.9049 15.144 13.4089 15.312 14.0969 15.312C14.3369 15.312 14.5609 15.288 14.7689 15.24C14.9769 15.192 15.1689 15.16 15.3449 15.144C15.5689 15.128 15.7529 15.2 15.8969 15.36C16.0409 15.504 16.1129 15.832 16.1129 16.344C16.1129 16.728 16.0489 17.064 15.9209 17.352C15.7929 17.64 15.5689 17.848 15.2489 17.976C15.0409 18.056 14.7529 18.12 14.3849 18.168C14.0329 18.232 13.7289 18.264 13.4729 18.264ZM25.9191 18.216C25.3271 18.216 24.8711 18.056 24.5511 17.736C24.2471 17.416 24.0951 16.96 24.0951 16.368V2.712C24.0951 2.104 24.2471 1.648 24.5511 1.344C24.8711 1.024 25.3271 0.863999 25.9191 0.863999C26.4951 0.863999 26.9351 1.024 27.2391 1.344C27.5591 1.648 27.7191 2.104 27.7191 2.712V8.424H27.3831C27.7511 7.64 28.2951 7.04 29.0151 6.624C29.7511 6.192 30.5831 5.976 31.5111 5.976C32.4551 5.976 33.2311 6.16 33.8391 6.528C34.4471 6.88 34.9031 7.424 35.2071 8.16C35.5111 8.88 35.6631 9.8 35.6631 10.92V16.368C35.6631 16.96 35.5031 17.416 35.1831 17.736C34.8791 18.056 34.4311 18.216 33.8391 18.216C33.2631 18.216 32.8151 18.056 32.4951 17.736C32.1911 17.416 32.0391 16.96 32.0391 16.368V11.088C32.0391 10.272 31.8871 9.688 31.5831 9.336C31.2951 8.968 30.8471 8.784 30.2391 8.784C29.4711 8.784 28.8551 9.024 28.3911 9.504C27.9431 9.984 27.7191 10.624 27.7191 11.424V16.368C27.7191 17.6 27.1191 18.216 25.9191 18.216ZM42.3526 18.264C41.4886 18.264 40.7126 18.096 40.0246 17.76C39.3366 17.424 38.8006 16.968 38.4166 16.392C38.0326 15.816 37.8406 15.168 37.8406 14.448C37.8406 13.584 38.0646 12.904 38.5126 12.408C38.9606 11.896 39.6886 11.536 40.6966 11.328C41.7046 11.104 43.0406 10.992 44.7046 10.992H45.9766V12.864H44.7286C43.9126 12.864 43.2486 12.912 42.7366 13.008C42.2406 13.088 41.8806 13.232 41.6566 13.44C41.4486 13.648 41.3446 13.936 41.3446 14.304C41.3446 14.752 41.4966 15.12 41.8006 15.408C42.1206 15.696 42.5766 15.84 43.1686 15.84C43.6326 15.84 44.0406 15.736 44.3926 15.528C44.7606 15.304 45.0486 15.008 45.2566 14.64C45.4646 14.256 45.5686 13.824 45.5686 13.344V10.584C45.5686 9.88 45.4086 9.384 45.0886 9.096C44.7686 8.792 44.2246 8.64 43.4566 8.64C43.0246 8.64 42.5526 8.696 42.0406 8.808C41.5446 8.904 40.9926 9.072 40.3846 9.312C40.0326 9.472 39.7206 9.512 39.4486 9.432C39.1766 9.336 38.9686 9.176 38.8246 8.952C38.6806 8.712 38.6086 8.456 38.6086 8.184C38.6086 7.896 38.6886 7.624 38.8486 7.368C39.0086 7.096 39.2726 6.896 39.6406 6.768C40.3926 6.464 41.0966 6.256 41.7526 6.144C42.4246 6.032 43.0406 5.976 43.6006 5.976C44.8326 5.976 45.8406 6.16 46.6246 6.528C47.4246 6.88 48.0246 7.432 48.4246 8.184C48.8246 8.92 49.0246 9.872 49.0246 11.04V16.368C49.0246 16.96 48.8806 17.416 48.5926 17.736C48.3046 18.056 47.8886 18.216 47.3446 18.216C46.8006 18.216 46.3766 18.056 46.0726 17.736C45.7846 17.416 45.6406 16.96 45.6406 16.368V15.48L45.8086 15.624C45.7126 16.168 45.5046 16.64 45.1846 17.04C44.8806 17.424 44.4886 17.728 44.0086 17.952C43.5286 18.16 42.9766 18.264 42.3526 18.264ZM56.2399 18.264C55.5359 18.264 54.8079 18.2 54.0559 18.072C53.3199 17.944 52.6479 17.728 52.0399 17.424C51.7199 17.264 51.4879 17.064 51.3439 16.824C51.2159 16.568 51.1599 16.312 51.1759 16.056C51.1919 15.8 51.2719 15.568 51.4159 15.36C51.5759 15.152 51.7759 15.016 52.0159 14.952C52.2719 14.872 52.5519 14.896 52.8559 15.024C53.5119 15.296 54.1119 15.488 54.6559 15.6C55.1999 15.712 55.7359 15.768 56.2639 15.768C56.9519 15.768 57.4479 15.664 57.7519 15.456C58.0719 15.232 58.2319 14.944 58.2319 14.592C58.2319 14.272 58.1279 14.032 57.9199 13.872C57.7119 13.712 57.4079 13.6 57.0079 13.536L54.4879 13.08C53.4959 12.904 52.7279 12.544 52.1839 12C51.6559 11.44 51.3919 10.728 51.3919 9.864C51.3919 9.064 51.6159 8.376 52.0639 7.8C52.5119 7.208 53.1279 6.76 53.9119 6.456C54.7119 6.136 55.6159 5.976 56.6239 5.976C57.3439 5.976 58.0079 6.04 58.6159 6.168C59.2239 6.296 59.8079 6.504 60.3679 6.792C60.6559 6.936 60.8559 7.128 60.9679 7.368C61.0959 7.608 61.1359 7.856 61.0879 8.112C61.0559 8.368 60.9599 8.6 60.7999 8.808C60.6399 9.016 60.4319 9.152 60.1759 9.216C59.9359 9.28 59.6559 9.248 59.3359 9.12C58.8239 8.88 58.3519 8.712 57.9199 8.616C57.4879 8.504 57.0719 8.448 56.6719 8.448C55.9519 8.448 55.4319 8.568 55.1119 8.808C54.7919 9.032 54.6319 9.32 54.6319 9.672C54.6319 9.944 54.7199 10.176 54.8959 10.368C55.0879 10.544 55.3759 10.664 55.7599 10.728L58.2799 11.184C59.3199 11.36 60.1119 11.712 60.6559 12.24C61.1999 12.752 61.4719 13.456 61.4719 14.352C61.4719 15.568 60.9919 16.528 60.0319 17.232C59.0879 17.92 57.8239 18.264 56.2399 18.264ZM72.0676 18.192C71.4756 18.192 71.0196 18.024 70.6996 17.688C70.3956 17.336 70.2436 16.848 70.2436 16.224V8.016C70.2436 7.376 70.3956 6.888 70.6996 6.552C71.0196 6.2 71.4756 6.024 72.0676 6.024C72.6436 6.024 73.0836 6.2 73.3876 6.552C73.7076 6.888 73.8676 7.376 73.8676 8.016V16.224C73.8676 16.848 73.7156 17.336 73.4116 17.688C73.1076 18.024 72.6596 18.192 72.0676 18.192ZM72.0676 4.056C71.3956 4.056 70.8756 3.904 70.5076 3.6C70.1556 3.28 69.9796 2.832 69.9796 2.256C69.9796 1.664 70.1556 1.216 70.5076 0.912C70.8756 0.591999 71.3956 0.431999 72.0676 0.431999C72.7396 0.431999 73.2516 0.591999 73.6036 0.912C73.9556 1.216 74.1316 1.664 74.1316 2.256C74.1316 2.832 73.9556 3.28 73.6036 3.6C73.2516 3.904 72.7396 4.056 72.0676 4.056ZM78.5374 18.216C77.9454 18.216 77.4894 18.056 77.1694 17.736C76.8654 17.416 76.7134 16.96 76.7134 16.368V7.848C76.7134 7.256 76.8654 6.808 77.1694 6.504C77.4894 6.184 77.9294 6.024 78.4894 6.024C79.0654 6.024 79.5054 6.184 79.8094 6.504C80.1134 6.808 80.2654 7.256 80.2654 7.848V9.384L80.0014 8.424C80.3214 7.688 80.8174 7.096 81.4894 6.648C82.1614 6.2 82.9534 5.976 83.8654 5.976C84.7774 5.976 85.5374 6.192 86.1454 6.624C86.7534 7.056 87.1854 7.72 87.4414 8.616H87.1054C87.4574 7.8 87.9934 7.16 88.7134 6.696C89.4494 6.216 90.2894 5.976 91.2334 5.976C92.1454 5.976 92.8894 6.16 93.4654 6.528C94.0574 6.88 94.4974 7.424 94.7854 8.16C95.0734 8.88 95.2174 9.8 95.2174 10.92V16.368C95.2174 16.96 95.0574 17.416 94.7374 17.736C94.4334 18.056 93.9934 18.216 93.4174 18.216C92.8254 18.216 92.3694 18.056 92.0494 17.736C91.7454 17.416 91.5934 16.96 91.5934 16.368V11.04C91.5934 10.256 91.4654 9.688 91.2094 9.336C90.9694 8.968 90.5534 8.784 89.9614 8.784C89.2734 8.784 88.7374 9.024 88.3534 9.504C87.9694 9.984 87.7774 10.664 87.7774 11.544V16.368C87.7774 16.96 87.6174 17.416 87.2974 17.736C86.9934 18.056 86.5534 18.216 85.9774 18.216C85.4014 18.216 84.9534 18.056 84.6334 17.736C84.3134 17.416 84.1534 16.96 84.1534 16.368V11.04C84.1534 10.256 84.0254 9.688 83.7694 9.336C83.5294 8.968 83.1134 8.784 82.5214 8.784C81.8334 8.784 81.2974 9.024 80.9134 9.504C80.5294 9.984 80.3374 10.664 80.3374 11.544V16.368C80.3374 17.6 79.7374 18.216 78.5374 18.216ZM101.978 18.264C101.114 18.264 100.338 18.096 99.6496 17.76C98.9616 17.424 98.4256 16.968 98.0416 16.392C97.6576 15.816 97.4656 15.168 97.4656 14.448C97.4656 13.584 97.6896 12.904 98.1376 12.408C98.5856 11.896 99.3136 11.536 100.322 11.328C101.33 11.104 102.666 10.992 104.33 10.992H105.602V12.864H104.354C103.538 12.864 102.874 12.912 102.362 13.008C101.866 13.088 101.506 13.232 101.282 13.44C101.074 13.648 100.97 13.936 100.97 14.304C100.97 14.752 101.122 15.12 101.426 15.408C101.746 15.696 102.202 15.84 102.794 15.84C103.258 15.84 103.666 15.736 104.018 15.528C104.386 15.304 104.674 15.008 104.882 14.64C105.09 14.256 105.194 13.824 105.194 13.344V10.584C105.194 9.88 105.034 9.384 104.714 9.096C104.394 8.792 103.85 8.64 103.082 8.64C102.65 8.64 102.178 8.696 101.666 8.808C101.17 8.904 100.618 9.072 100.01 9.312C99.6576 9.472 99.3456 9.512 99.0736 9.432C98.8016 9.336 98.5936 9.176 98.4496 8.952C98.3056 8.712 98.2336 8.456 98.2336 8.184C98.2336 7.896 98.3136 7.624 98.4736 7.368C98.6336 7.096 98.8976 6.896 99.2656 6.768C100.018 6.464 100.722 6.256 101.378 6.144C102.05 6.032 102.666 5.976 103.226 5.976C104.458 5.976 105.466 6.16 106.25 6.528C107.05 6.88 107.65 7.432 108.05 8.184C108.45 8.92 108.65 9.872 108.65 11.04V16.368C108.65 16.96 108.506 17.416 108.218 17.736C107.93 18.056 107.514 18.216 106.97 18.216C106.426 18.216 106.002 18.056 105.698 17.736C105.41 17.416 105.266 16.96 105.266 16.368V15.48L105.434 15.624C105.338 16.168 105.13 16.64 104.81 17.04C104.506 17.424 104.114 17.728 103.634 17.952C103.154 18.16 102.602 18.264 101.978 18.264ZM117.017 22.584C116.153 22.584 115.321 22.512 114.521 22.368C113.737 22.224 113.041 22.008 112.433 21.72C112.065 21.56 111.801 21.352 111.641 21.096C111.497 20.84 111.433 20.568 111.449 20.28C111.481 19.992 111.577 19.736 111.737 19.512C111.913 19.288 112.129 19.128 112.385 19.032C112.641 18.952 112.913 18.976 113.201 19.104C113.905 19.424 114.553 19.632 115.145 19.728C115.753 19.824 116.273 19.872 116.705 19.872C117.729 19.872 118.497 19.64 119.009 19.176C119.521 18.712 119.777 18 119.777 17.04V15.216H119.993C119.753 15.952 119.257 16.552 118.505 17.016C117.753 17.48 116.921 17.712 116.009 17.712C114.953 17.712 114.033 17.472 113.249 16.992C112.465 16.496 111.857 15.808 111.425 14.928C110.993 14.032 110.777 13 110.777 11.832C110.777 10.952 110.897 10.152 111.137 9.432C111.393 8.712 111.745 8.096 112.193 7.584C112.657 7.072 113.209 6.68 113.849 6.408C114.505 6.12 115.225 5.976 116.009 5.976C116.953 5.976 117.785 6.208 118.505 6.672C119.241 7.12 119.729 7.712 119.969 8.448L119.729 9.216V7.848C119.729 7.256 119.881 6.808 120.185 6.504C120.505 6.184 120.953 6.024 121.529 6.024C122.105 6.024 122.545 6.184 122.849 6.504C123.153 6.808 123.305 7.256 123.305 7.848V16.632C123.305 18.6 122.761 20.08 121.673 21.072C120.601 22.08 119.049 22.584 117.017 22.584ZM117.089 15C117.633 15 118.097 14.872 118.481 14.616C118.881 14.36 119.193 14 119.417 13.536C119.641 13.056 119.753 12.488 119.753 11.832C119.753 10.84 119.505 10.072 119.009 9.528C118.529 8.968 117.889 8.688 117.089 8.688C116.545 8.688 116.073 8.816 115.673 9.072C115.273 9.312 114.961 9.672 114.737 10.152C114.529 10.616 114.425 11.176 114.425 11.832C114.425 12.824 114.665 13.6 115.145 14.16C115.625 14.72 116.273 15 117.089 15ZM132.239 18.264C130.847 18.264 129.647 18.016 128.639 17.52C127.647 17.008 126.879 16.296 126.335 15.384C125.807 14.456 125.543 13.368 125.543 12.12C125.543 10.904 125.799 9.84 126.311 8.928C126.823 8 127.535 7.28 128.447 6.768C129.375 6.24 130.423 5.976 131.591 5.976C132.439 5.976 133.207 6.12 133.895 6.408C134.583 6.68 135.175 7.08 135.671 7.608C136.167 8.12 136.543 8.752 136.799 9.504C137.055 10.24 137.183 11.064 137.183 11.976C137.183 12.28 137.087 12.512 136.895 12.672C136.703 12.816 136.423 12.888 136.055 12.888H128.519V11.016H134.567L134.183 11.352C134.183 10.696 134.087 10.152 133.895 9.72C133.703 9.272 133.423 8.936 133.055 8.712C132.703 8.488 132.263 8.376 131.735 8.376C131.143 8.376 130.639 8.512 130.223 8.784C129.807 9.056 129.487 9.448 129.263 9.96C129.039 10.472 128.927 11.088 128.927 11.808V12C128.927 13.216 129.207 14.112 129.767 14.688C130.343 15.264 131.191 15.552 132.311 15.552C132.695 15.552 133.135 15.504 133.631 15.408C134.127 15.312 134.591 15.16 135.023 14.952C135.391 14.776 135.719 14.72 136.007 14.784C136.295 14.832 136.519 14.96 136.679 15.168C136.839 15.376 136.927 15.616 136.943 15.888C136.975 16.16 136.919 16.432 136.775 16.704C136.631 16.96 136.391 17.176 136.055 17.352C135.511 17.656 134.895 17.88 134.207 18.024C133.535 18.184 132.879 18.264 132.239 18.264ZM143.802 18.264C143.098 18.264 142.37 18.2 141.618 18.072C140.882 17.944 140.21 17.728 139.602 17.424C139.282 17.264 139.05 17.064 138.906 16.824C138.778 16.568 138.722 16.312 138.738 16.056C138.754 15.8 138.834 15.568 138.978 15.36C139.138 15.152 139.338 15.016 139.578 14.952C139.834 14.872 140.114 14.896 140.418 15.024C141.074 15.296 141.674 15.488 142.218 15.6C142.762 15.712 143.298 15.768 143.826 15.768C144.514 15.768 145.01 15.664 145.314 15.456C145.634 15.232 145.794 14.944 145.794 14.592C145.794 14.272 145.69 14.032 145.482 13.872C145.274 13.712 144.97 13.6 144.57 13.536L142.05 13.08C141.058 12.904 140.29 12.544 139.746 12C139.218 11.44 138.954 10.728 138.954 9.864C138.954 9.064 139.178 8.376 139.626 7.8C140.074 7.208 140.69 6.76 141.474 6.456C142.274 6.136 143.178 5.976 144.186 5.976C144.906 5.976 145.57 6.04 146.178 6.168C146.786 6.296 147.37 6.504 147.93 6.792C148.218 6.936 148.418 7.128 148.53 7.368C148.658 7.608 148.698 7.856 148.65 8.112C148.618 8.368 148.522 8.6 148.362 8.808C148.202 9.016 147.994 9.152 147.738 9.216C147.498 9.28 147.218 9.248 146.898 9.12C146.386 8.88 145.914 8.712 145.482 8.616C145.05 8.504 144.634 8.448 144.234 8.448C143.514 8.448 142.994 8.568 142.674 8.808C142.354 9.032 142.194 9.32 142.194 9.672C142.194 9.944 142.282 10.176 142.458 10.368C142.65 10.544 142.938 10.664 143.322 10.728L145.842 11.184C146.882 11.36 147.674 11.712 148.218 12.24C148.762 12.752 149.034 13.456 149.034 14.352C149.034 15.568 148.554 16.528 147.594 17.232C146.65 17.92 145.386 18.264 143.802 18.264ZM152.738 18.12C152.098 18.12 151.586 17.928 151.202 17.544C150.834 17.16 150.65 16.664 150.65 16.056C150.65 15.464 150.834 14.984 151.202 14.616C151.586 14.232 152.098 14.04 152.738 14.04C153.378 14.04 153.874 14.232 154.226 14.616C154.594 14.984 154.778 15.464 154.778 16.056C154.778 16.664 154.594 17.16 154.226 17.544C153.874 17.928 153.378 18.12 152.738 18.12Z" fill="#A6C930"/>
</svg>
