<svg width="187" height="23" viewBox="0 0 187 23" fill="none" xmlns="http://www.w3.org/2000/svg">
<path d="M2.72834 18.216C2.12034 18.216 1.65634 18.048 1.33634 17.712C1.01634 17.376 0.856344 16.904 0.856344 16.296V2.784C0.856344 2.176 1.01634 1.704 1.33634 1.368C1.65634 1.032 2.12034 0.863999 2.72834 0.863999C3.32034 0.863999 3.77634 1.032 4.09634 1.368C4.41634 1.704 4.57634 2.176 4.57634 2.784V16.296C4.57634 16.904 4.41634 17.376 4.09634 17.712C3.79234 18.048 3.33634 18.216 2.72834 18.216ZM13.4533 18.264C12.3493 18.264 11.4213 18.08 10.6693 17.712C9.93334 17.344 9.38134 16.808 9.01334 16.104C8.66134 15.4 8.48534 14.512 8.48534 13.44V8.928H7.47734C7.02934 8.928 6.67734 8.808 6.42134 8.568C6.18134 8.328 6.06134 8 6.06134 7.584C6.06134 7.136 6.18134 6.8 6.42134 6.576C6.67734 6.336 7.02934 6.216 7.47734 6.216H8.48534V4.392C8.48534 3.784 8.64534 3.328 8.96534 3.024C9.28534 2.704 9.73334 2.544 10.3093 2.544C10.9013 2.544 11.3493 2.704 11.6533 3.024C11.9573 3.328 12.1093 3.784 12.1093 4.392V6.216H14.3893C14.8373 6.216 15.1813 6.336 15.4213 6.576C15.6613 6.8 15.7813 7.136 15.7813 7.584C15.7813 8 15.6613 8.328 15.4213 8.568C15.1813 8.808 14.8373 8.928 14.3893 8.928H12.1093V13.296C12.1093 13.968 12.2613 14.472 12.5653 14.808C12.8853 15.144 13.3893 15.312 14.0773 15.312C14.3173 15.312 14.5413 15.288 14.7493 15.24C14.9573 15.192 15.1493 15.16 15.3253 15.144C15.5493 15.128 15.7333 15.2 15.8773 15.36C16.0213 15.504 16.0933 15.832 16.0933 16.344C16.0933 16.728 16.0293 17.064 15.9013 17.352C15.7733 17.64 15.5493 17.848 15.2293 17.976C15.0213 18.056 14.7333 18.12 14.3653 18.168C14.0133 18.232 13.7093 18.264 13.4533 18.264ZM25.8996 18.216C25.3076 18.216 24.8516 18.056 24.5316 17.736C24.2276 17.416 24.0756 16.96 24.0756 16.368V2.712C24.0756 2.104 24.2276 1.648 24.5316 1.344C24.8516 1.024 25.3076 0.863999 25.8996 0.863999C26.4756 0.863999 26.9156 1.024 27.2196 1.344C27.5396 1.648 27.6996 2.104 27.6996 2.712V8.424H27.3636C27.7316 7.64 28.2756 7.04 28.9956 6.624C29.7316 6.192 30.5636 5.976 31.4916 5.976C32.4356 5.976 33.2116 6.16 33.8196 6.528C34.4276 6.88 34.8836 7.424 35.1876 8.16C35.4916 8.88 35.6436 9.8 35.6436 10.92V16.368C35.6436 16.96 35.4836 17.416 35.1636 17.736C34.8596 18.056 34.4116 18.216 33.8196 18.216C33.2436 18.216 32.7956 18.056 32.4756 17.736C32.1716 17.416 32.0196 16.96 32.0196 16.368V11.088C32.0196 10.272 31.8676 9.688 31.5636 9.336C31.2756 8.968 30.8276 8.784 30.2196 8.784C29.4516 8.784 28.8356 9.024 28.3716 9.504C27.9236 9.984 27.6996 10.624 27.6996 11.424V16.368C27.6996 17.6 27.0996 18.216 25.8996 18.216ZM42.333 18.264C41.469 18.264 40.693 18.096 40.005 17.76C39.317 17.424 38.781 16.968 38.397 16.392C38.013 15.816 37.821 15.168 37.821 14.448C37.821 13.584 38.045 12.904 38.493 12.408C38.941 11.896 39.669 11.536 40.677 11.328C41.685 11.104 43.021 10.992 44.685 10.992H45.957V12.864H44.709C43.893 12.864 43.229 12.912 42.717 13.008C42.221 13.088 41.861 13.232 41.637 13.44C41.429 13.648 41.325 13.936 41.325 14.304C41.325 14.752 41.477 15.12 41.781 15.408C42.101 15.696 42.557 15.84 43.149 15.84C43.613 15.84 44.021 15.736 44.373 15.528C44.741 15.304 45.029 15.008 45.237 14.64C45.445 14.256 45.549 13.824 45.549 13.344V10.584C45.549 9.88 45.389 9.384 45.069 9.096C44.749 8.792 44.205 8.64 43.437 8.64C43.005 8.64 42.533 8.696 42.021 8.808C41.525 8.904 40.973 9.072 40.365 9.312C40.013 9.472 39.701 9.512 39.429 9.432C39.157 9.336 38.949 9.176 38.805 8.952C38.661 8.712 38.589 8.456 38.589 8.184C38.589 7.896 38.669 7.624 38.829 7.368C38.989 7.096 39.253 6.896 39.621 6.768C40.373 6.464 41.077 6.256 41.733 6.144C42.405 6.032 43.021 5.976 43.581 5.976C44.813 5.976 45.821 6.16 46.605 6.528C47.405 6.88 48.005 7.432 48.405 8.184C48.805 8.92 49.005 9.872 49.005 11.04V16.368C49.005 16.96 48.861 17.416 48.573 17.736C48.285 18.056 47.869 18.216 47.325 18.216C46.781 18.216 46.357 18.056 46.053 17.736C45.765 17.416 45.621 16.96 45.621 16.368V15.48L45.789 15.624C45.693 16.168 45.485 16.64 45.165 17.04C44.861 17.424 44.469 17.728 43.989 17.952C43.509 18.16 42.957 18.264 42.333 18.264ZM56.2204 18.264C55.5164 18.264 54.7884 18.2 54.0364 18.072C53.3004 17.944 52.6284 17.728 52.0204 17.424C51.7004 17.264 51.4684 17.064 51.3244 16.824C51.1964 16.568 51.1404 16.312 51.1564 16.056C51.1724 15.8 51.2524 15.568 51.3964 15.36C51.5564 15.152 51.7564 15.016 51.9964 14.952C52.2524 14.872 52.5324 14.896 52.8364 15.024C53.4924 15.296 54.0924 15.488 54.6364 15.6C55.1804 15.712 55.7164 15.768 56.2444 15.768C56.9324 15.768 57.4284 15.664 57.7324 15.456C58.0524 15.232 58.2124 14.944 58.2124 14.592C58.2124 14.272 58.1084 14.032 57.9004 13.872C57.6924 13.712 57.3884 13.6 56.9884 13.536L54.4684 13.08C53.4764 12.904 52.7084 12.544 52.1644 12C51.6364 11.44 51.3724 10.728 51.3724 9.864C51.3724 9.064 51.5964 8.376 52.0444 7.8C52.4924 7.208 53.1084 6.76 53.8924 6.456C54.6924 6.136 55.5964 5.976 56.6044 5.976C57.3244 5.976 57.9884 6.04 58.5964 6.168C59.2044 6.296 59.7884 6.504 60.3484 6.792C60.6364 6.936 60.8364 7.128 60.9484 7.368C61.0764 7.608 61.1164 7.856 61.0684 8.112C61.0364 8.368 60.9404 8.6 60.7804 8.808C60.6204 9.016 60.4124 9.152 60.1564 9.216C59.9164 9.28 59.6364 9.248 59.3164 9.12C58.8044 8.88 58.3324 8.712 57.9004 8.616C57.4684 8.504 57.0524 8.448 56.6524 8.448C55.9324 8.448 55.4124 8.568 55.0924 8.808C54.7724 9.032 54.6124 9.32 54.6124 9.672C54.6124 9.944 54.7004 10.176 54.8764 10.368C55.0684 10.544 55.3564 10.664 55.7404 10.728L58.2604 11.184C59.3004 11.36 60.0924 11.712 60.6364 12.24C61.1804 12.752 61.4524 13.456 61.4524 14.352C61.4524 15.568 60.9724 16.528 60.0124 17.232C59.0684 17.92 57.8044 18.264 56.2204 18.264ZM74.208 18.264C73.344 18.264 72.568 18.096 71.88 17.76C71.192 17.424 70.656 16.968 70.272 16.392C69.888 15.816 69.696 15.168 69.696 14.448C69.696 13.584 69.92 12.904 70.368 12.408C70.816 11.896 71.544 11.536 72.552 11.328C73.56 11.104 74.896 10.992 76.56 10.992H77.832V12.864H76.584C75.768 12.864 75.104 12.912 74.592 13.008C74.096 13.088 73.736 13.232 73.512 13.44C73.304 13.648 73.2 13.936 73.2 14.304C73.2 14.752 73.352 15.12 73.656 15.408C73.976 15.696 74.432 15.84 75.024 15.84C75.488 15.84 75.896 15.736 76.248 15.528C76.616 15.304 76.904 15.008 77.112 14.64C77.32 14.256 77.424 13.824 77.424 13.344V10.584C77.424 9.88 77.264 9.384 76.944 9.096C76.624 8.792 76.08 8.64 75.312 8.64C74.88 8.64 74.408 8.696 73.896 8.808C73.4 8.904 72.848 9.072 72.24 9.312C71.888 9.472 71.576 9.512 71.304 9.432C71.032 9.336 70.824 9.176 70.68 8.952C70.536 8.712 70.464 8.456 70.464 8.184C70.464 7.896 70.544 7.624 70.704 7.368C70.864 7.096 71.128 6.896 71.496 6.768C72.248 6.464 72.952 6.256 73.608 6.144C74.28 6.032 74.896 5.976 75.456 5.976C76.688 5.976 77.696 6.16 78.48 6.528C79.28 6.88 79.88 7.432 80.28 8.184C80.68 8.92 80.88 9.872 80.88 11.04V16.368C80.88 16.96 80.736 17.416 80.448 17.736C80.16 18.056 79.744 18.216 79.2 18.216C78.656 18.216 78.232 18.056 77.928 17.736C77.64 17.416 77.496 16.96 77.496 16.368V15.48L77.664 15.624C77.568 16.168 77.36 16.64 77.04 17.04C76.736 17.424 76.344 17.728 75.864 17.952C75.384 18.16 74.832 18.264 74.208 18.264ZM87.8314 18.264C86.4074 18.264 85.3434 17.872 84.6394 17.088C83.9354 16.288 83.5834 15.104 83.5834 13.536V2.712C83.5834 2.104 83.7354 1.648 84.0394 1.344C84.3594 1.024 84.8154 0.863999 85.4074 0.863999C85.9834 0.863999 86.4234 1.024 86.7274 1.344C87.0474 1.648 87.2074 2.104 87.2074 2.712V13.392C87.2074 14.048 87.3434 14.536 87.6154 14.856C87.9034 15.16 88.2794 15.312 88.7434 15.312C88.8714 15.312 88.9914 15.304 89.1034 15.288C89.2154 15.272 89.3354 15.264 89.4634 15.264C89.7194 15.232 89.8954 15.312 89.9914 15.504C90.1034 15.68 90.1594 16.04 90.1594 16.584C90.1594 17.064 90.0634 17.432 89.8714 17.688C89.6794 17.928 89.3834 18.088 88.9834 18.168C88.8234 18.184 88.6394 18.2 88.4314 18.216C88.2234 18.248 88.0234 18.264 87.8314 18.264ZM93.3996 22.536C92.8076 22.536 92.3516 22.376 92.0316 22.056C91.7276 21.752 91.5756 21.296 91.5756 20.688V7.848C91.5756 7.256 91.7276 6.808 92.0316 6.504C92.3516 6.184 92.7916 6.024 93.3516 6.024C93.9436 6.024 94.3916 6.184 94.6956 6.504C94.9996 6.808 95.1516 7.256 95.1516 7.848V9.48L94.8876 8.544C95.1276 7.776 95.6076 7.16 96.3276 6.696C97.0636 6.216 97.9036 5.976 98.8476 5.976C99.8716 5.976 100.768 6.224 101.536 6.72C102.32 7.216 102.928 7.92 103.36 8.832C103.792 9.744 104.008 10.832 104.008 12.096C104.008 13.36 103.792 14.456 103.36 15.384C102.928 16.312 102.328 17.024 101.56 17.52C100.792 18.016 99.8876 18.264 98.8476 18.264C97.9196 18.264 97.0956 18.04 96.3756 17.592C95.6556 17.128 95.1676 16.528 94.9116 15.792H95.1996V20.688C95.1996 21.296 95.0396 21.752 94.7196 22.056C94.4156 22.376 93.9756 22.536 93.3996 22.536ZM97.7676 15.552C98.2796 15.552 98.7276 15.424 99.1116 15.168C99.5116 14.912 99.8156 14.536 100.024 14.04C100.248 13.528 100.36 12.88 100.36 12.096C100.36 10.928 100.12 10.072 99.6396 9.528C99.1596 8.968 98.5356 8.688 97.7676 8.688C97.2556 8.688 96.7996 8.808 96.3996 9.048C96.0156 9.288 95.7116 9.664 95.4876 10.176C95.2636 10.672 95.1516 11.312 95.1516 12.096C95.1516 13.264 95.3916 14.136 95.8716 14.712C96.3516 15.272 96.9836 15.552 97.7676 15.552ZM108.048 18.216C107.456 18.216 107 18.056 106.68 17.736C106.376 17.416 106.224 16.96 106.224 16.368V2.712C106.224 2.104 106.376 1.648 106.68 1.344C107 1.024 107.456 0.863999 108.048 0.863999C108.624 0.863999 109.064 1.024 109.368 1.344C109.688 1.648 109.848 2.104 109.848 2.712V8.424H109.512C109.88 7.64 110.424 7.04 111.144 6.624C111.88 6.192 112.712 5.976 113.64 5.976C114.584 5.976 115.36 6.16 115.968 6.528C116.576 6.88 117.032 7.424 117.336 8.16C117.64 8.88 117.792 9.8 117.792 10.92V16.368C117.792 16.96 117.632 17.416 117.312 17.736C117.008 18.056 116.56 18.216 115.968 18.216C115.392 18.216 114.944 18.056 114.624 17.736C114.32 17.416 114.168 16.96 114.168 16.368V11.088C114.168 10.272 114.016 9.688 113.712 9.336C113.424 8.968 112.976 8.784 112.368 8.784C111.6 8.784 110.984 9.024 110.52 9.504C110.072 9.984 109.848 10.624 109.848 11.424V16.368C109.848 17.6 109.248 18.216 108.048 18.216ZM124.481 18.264C123.617 18.264 122.841 18.096 122.153 17.76C121.465 17.424 120.929 16.968 120.545 16.392C120.161 15.816 119.969 15.168 119.969 14.448C119.969 13.584 120.193 12.904 120.641 12.408C121.089 11.896 121.817 11.536 122.825 11.328C123.833 11.104 125.169 10.992 126.833 10.992H128.105V12.864H126.857C126.041 12.864 125.377 12.912 124.865 13.008C124.369 13.088 124.009 13.232 123.785 13.44C123.577 13.648 123.473 13.936 123.473 14.304C123.473 14.752 123.625 15.12 123.929 15.408C124.249 15.696 124.705 15.84 125.297 15.84C125.761 15.84 126.169 15.736 126.521 15.528C126.889 15.304 127.177 15.008 127.385 14.64C127.593 14.256 127.697 13.824 127.697 13.344V10.584C127.697 9.88 127.537 9.384 127.217 9.096C126.897 8.792 126.353 8.64 125.585 8.64C125.153 8.64 124.681 8.696 124.169 8.808C123.673 8.904 123.121 9.072 122.513 9.312C122.161 9.472 121.849 9.512 121.577 9.432C121.305 9.336 121.097 9.176 120.953 8.952C120.809 8.712 120.737 8.456 120.737 8.184C120.737 7.896 120.817 7.624 120.977 7.368C121.137 7.096 121.401 6.896 121.769 6.768C122.521 6.464 123.225 6.256 123.881 6.144C124.553 6.032 125.169 5.976 125.729 5.976C126.961 5.976 127.969 6.16 128.753 6.528C129.553 6.88 130.153 7.432 130.553 8.184C130.953 8.92 131.153 9.872 131.153 11.04V16.368C131.153 16.96 131.009 17.416 130.721 17.736C130.433 18.056 130.017 18.216 129.473 18.216C128.929 18.216 128.505 18.056 128.201 17.736C127.913 17.416 127.769 16.96 127.769 16.368V15.48L127.937 15.624C127.841 16.168 127.633 16.64 127.313 17.04C127.009 17.424 126.617 17.728 126.137 17.952C125.657 18.16 125.105 18.264 124.481 18.264ZM141.129 18.264C140.185 18.264 139.345 18.032 138.609 17.568C137.889 17.088 137.409 16.456 137.169 15.672L137.433 14.88V16.368C137.433 16.96 137.281 17.416 136.977 17.736C136.673 18.056 136.233 18.216 135.657 18.216C135.081 18.216 134.633 18.056 134.313 17.736C134.009 17.416 133.857 16.96 133.857 16.368V2.712C133.857 2.104 134.009 1.648 134.313 1.344C134.633 1.024 135.089 0.863999 135.681 0.863999C136.257 0.863999 136.697 1.024 137.001 1.344C137.321 1.648 137.481 2.104 137.481 2.712V8.4H137.193C137.449 7.68 137.937 7.096 138.657 6.648C139.377 6.2 140.201 5.976 141.129 5.976C142.169 5.976 143.073 6.224 143.841 6.72C144.609 7.216 145.209 7.92 145.641 8.832C146.073 9.744 146.289 10.832 146.289 12.096C146.289 13.36 146.073 14.456 145.641 15.384C145.209 16.312 144.601 17.024 143.817 17.52C143.049 18.016 142.153 18.264 141.129 18.264ZM140.049 15.552C140.561 15.552 141.009 15.424 141.393 15.168C141.793 14.912 142.097 14.536 142.305 14.04C142.529 13.528 142.641 12.88 142.641 12.096C142.641 10.928 142.401 10.072 141.921 9.528C141.441 8.968 140.817 8.688 140.049 8.688C139.537 8.688 139.081 8.808 138.681 9.048C138.297 9.288 137.993 9.664 137.769 10.176C137.545 10.672 137.433 11.312 137.433 12.096C137.433 13.264 137.673 14.136 138.153 14.712C138.633 15.272 139.265 15.552 140.049 15.552ZM154.625 18.264C153.233 18.264 152.033 18.016 151.025 17.52C150.033 17.008 149.265 16.296 148.721 15.384C148.193 14.456 147.929 13.368 147.929 12.12C147.929 10.904 148.185 9.84 148.697 8.928C149.209 8 149.921 7.28 150.833 6.768C151.761 6.24 152.809 5.976 153.977 5.976C154.825 5.976 155.593 6.12 156.281 6.408C156.969 6.68 157.561 7.08 158.057 7.608C158.553 8.12 158.929 8.752 159.185 9.504C159.441 10.24 159.569 11.064 159.569 11.976C159.569 12.28 159.473 12.512 159.281 12.672C159.089 12.816 158.809 12.888 158.441 12.888H150.905V11.016H156.953L156.569 11.352C156.569 10.696 156.473 10.152 156.281 9.72C156.089 9.272 155.809 8.936 155.441 8.712C155.089 8.488 154.649 8.376 154.121 8.376C153.529 8.376 153.025 8.512 152.609 8.784C152.193 9.056 151.873 9.448 151.649 9.96C151.425 10.472 151.313 11.088 151.313 11.808V12C151.313 13.216 151.593 14.112 152.153 14.688C152.729 15.264 153.577 15.552 154.697 15.552C155.081 15.552 155.521 15.504 156.017 15.408C156.513 15.312 156.977 15.16 157.409 14.952C157.777 14.776 158.105 14.72 158.393 14.784C158.681 14.832 158.905 14.96 159.065 15.168C159.225 15.376 159.313 15.616 159.329 15.888C159.361 16.16 159.305 16.432 159.161 16.704C159.017 16.96 158.777 17.176 158.441 17.352C157.897 17.656 157.281 17.88 156.593 18.024C155.921 18.184 155.265 18.264 154.625 18.264ZM167.391 18.264C166.287 18.264 165.359 18.08 164.607 17.712C163.871 17.344 163.319 16.808 162.951 16.104C162.599 15.4 162.423 14.512 162.423 13.44V8.928H161.415C160.967 8.928 160.615 8.808 160.359 8.568C160.119 8.328 159.999 8 159.999 7.584C159.999 7.136 160.119 6.8 160.359 6.576C160.615 6.336 160.967 6.216 161.415 6.216H162.423V4.392C162.423 3.784 162.583 3.328 162.903 3.024C163.223 2.704 163.671 2.544 164.247 2.544C164.839 2.544 165.287 2.704 165.591 3.024C165.895 3.328 166.047 3.784 166.047 4.392V6.216H168.327C168.775 6.216 169.119 6.336 169.359 6.576C169.599 6.8 169.719 7.136 169.719 7.584C169.719 8 169.599 8.328 169.359 8.568C169.119 8.808 168.775 8.928 168.327 8.928H166.047V13.296C166.047 13.968 166.199 14.472 166.503 14.808C166.823 15.144 167.327 15.312 168.015 15.312C168.255 15.312 168.479 15.288 168.687 15.24C168.895 15.192 169.087 15.16 169.263 15.144C169.487 15.128 169.671 15.2 169.815 15.36C169.959 15.504 170.031 15.832 170.031 16.344C170.031 16.728 169.967 17.064 169.839 17.352C169.711 17.64 169.487 17.848 169.167 17.976C168.959 18.056 168.671 18.12 168.303 18.168C167.951 18.232 167.647 18.264 167.391 18.264ZM175.822 18.264C175.118 18.264 174.39 18.2 173.638 18.072C172.902 17.944 172.23 17.728 171.622 17.424C171.302 17.264 171.07 17.064 170.926 16.824C170.798 16.568 170.742 16.312 170.758 16.056C170.774 15.8 170.854 15.568 170.998 15.36C171.158 15.152 171.358 15.016 171.598 14.952C171.854 14.872 172.134 14.896 172.438 15.024C173.094 15.296 173.694 15.488 174.238 15.6C174.782 15.712 175.318 15.768 175.846 15.768C176.534 15.768 177.03 15.664 177.334 15.456C177.654 15.232 177.814 14.944 177.814 14.592C177.814 14.272 177.71 14.032 177.502 13.872C177.294 13.712 176.99 13.6 176.59 13.536L174.07 13.08C173.078 12.904 172.31 12.544 171.766 12C171.238 11.44 170.974 10.728 170.974 9.864C170.974 9.064 171.198 8.376 171.646 7.8C172.094 7.208 172.71 6.76 173.494 6.456C174.294 6.136 175.198 5.976 176.206 5.976C176.926 5.976 177.59 6.04 178.198 6.168C178.806 6.296 179.39 6.504 179.95 6.792C180.238 6.936 180.438 7.128 180.55 7.368C180.678 7.608 180.718 7.856 180.67 8.112C180.638 8.368 180.542 8.6 180.382 8.808C180.222 9.016 180.014 9.152 179.758 9.216C179.518 9.28 179.238 9.248 178.918 9.12C178.406 8.88 177.934 8.712 177.502 8.616C177.07 8.504 176.654 8.448 176.254 8.448C175.534 8.448 175.014 8.568 174.694 8.808C174.374 9.032 174.214 9.32 174.214 9.672C174.214 9.944 174.302 10.176 174.478 10.368C174.67 10.544 174.958 10.664 175.342 10.728L177.862 11.184C178.902 11.36 179.694 11.712 180.238 12.24C180.782 12.752 181.054 13.456 181.054 14.352C181.054 15.568 180.574 16.528 179.614 17.232C178.67 17.92 177.406 18.264 175.822 18.264ZM184.757 18.12C184.117 18.12 183.605 17.928 183.221 17.544C182.853 17.16 182.669 16.664 182.669 16.056C182.669 15.464 182.853 14.984 183.221 14.616C183.605 14.232 184.117 14.04 184.757 14.04C185.397 14.04 185.893 14.232 186.245 14.616C186.613 14.984 186.797 15.464 186.797 16.056C186.797 16.664 186.613 17.16 186.245 17.544C185.893 17.928 185.397 18.12 184.757 18.12Z" fill="#A6C930"/>
</svg>
