<svg width="227" height="30" viewBox="0 0 227 30" fill="none" xmlns="http://www.w3.org/2000/svg">
<path d="M3.16703 29.36C2.1537 29.36 1.38036 29.08 0.847031 28.52C0.313698 27.96 0.0470313 27.1733 0.0470313 26.16V3.64C0.0470313 2.62667 0.313698 1.84 0.847031 1.28C1.38036 0.719999 2.1537 0.439998 3.16703 0.439998C4.1537 0.439998 4.9137 0.719999 5.44703 1.28C5.98037 1.84 6.24703 2.62667 6.24703 3.64V26.16C6.24703 27.1733 5.98037 27.96 5.44703 28.52C4.94036 29.08 4.18036 29.36 3.16703 29.36ZM21.042 29.44C19.202 29.44 17.6554 29.1333 16.402 28.52C15.1754 27.9067 14.2554 27.0133 13.642 25.84C13.0554 24.6667 12.762 23.1867 12.762 21.4V13.88H11.082C10.3354 13.88 9.7487 13.68 9.32203 13.28C8.92203 12.88 8.72203 12.3333 8.72203 11.64C8.72203 10.8933 8.92203 10.3333 9.32203 9.96C9.7487 9.56 10.3354 9.36 11.082 9.36H12.762V6.32C12.762 5.30667 13.0287 4.54667 13.562 4.04C14.0954 3.50667 14.842 3.24 15.802 3.24C16.7887 3.24 17.5354 3.50667 18.042 4.04C18.5487 4.54667 18.802 5.30667 18.802 6.32V9.36H22.602C23.3487 9.36 23.922 9.56 24.322 9.96C24.722 10.3333 24.922 10.8933 24.922 11.64C24.922 12.3333 24.722 12.88 24.322 13.28C23.922 13.68 23.3487 13.88 22.602 13.88H18.802V21.16C18.802 22.28 19.0554 23.12 19.562 23.68C20.0954 24.24 20.9354 24.52 22.082 24.52C22.482 24.52 22.8554 24.48 23.202 24.4C23.5487 24.32 23.8687 24.2667 24.162 24.24C24.5354 24.2133 24.842 24.3333 25.082 24.6C25.322 24.84 25.442 25.3867 25.442 26.24C25.442 26.88 25.3354 27.44 25.122 27.92C24.9087 28.4 24.5354 28.7467 24.002 28.96C23.6554 29.0933 23.1754 29.2 22.562 29.28C21.9754 29.3867 21.4687 29.44 21.042 29.44ZM35.0939 29.44C33.9206 29.44 32.7072 29.3333 31.4539 29.12C30.2272 28.9067 29.1072 28.5467 28.0939 28.04C27.5606 27.7733 27.1739 27.44 26.9339 27.04C26.7206 26.6133 26.6272 26.1867 26.6539 25.76C26.6806 25.3333 26.8139 24.9467 27.0539 24.6C27.3206 24.2533 27.6539 24.0267 28.0539 23.92C28.4806 23.7867 28.9472 23.8267 29.4539 24.04C30.5472 24.4933 31.5472 24.8133 32.4539 25C33.3606 25.1867 34.2539 25.28 35.1339 25.28C36.2806 25.28 37.1072 25.1067 37.6139 24.76C38.1472 24.3867 38.4139 23.9067 38.4139 23.32C38.4139 22.7867 38.2406 22.3867 37.8939 22.12C37.5472 21.8533 37.0406 21.6667 36.3739 21.56L32.1739 20.8C30.5206 20.5067 29.2406 19.9067 28.3339 19C27.4539 18.0667 27.0139 16.88 27.0139 15.44C27.0139 14.1067 27.3872 12.96 28.1339 12C28.8806 11.0133 29.9072 10.2667 31.2139 9.76C32.5472 9.22666 34.0539 8.96 35.7339 8.96C36.9339 8.96 38.0406 9.06667 39.0539 9.28C40.0672 9.49333 41.0406 9.84 41.9739 10.32C42.4539 10.56 42.7872 10.88 42.9739 11.28C43.1872 11.68 43.2539 12.0933 43.1739 12.52C43.1206 12.9467 42.9606 13.3333 42.6939 13.68C42.4272 14.0267 42.0806 14.2533 41.6539 14.36C41.2539 14.4667 40.7872 14.4133 40.2539 14.2C39.4006 13.8 38.6139 13.52 37.8939 13.36C37.1739 13.1733 36.4806 13.08 35.8139 13.08C34.6139 13.08 33.7472 13.28 33.2139 13.68C32.6806 14.0533 32.4139 14.5333 32.4139 15.12C32.4139 15.5733 32.5606 15.96 32.8539 16.28C33.1739 16.5733 33.6539 16.7733 34.2939 16.88L38.4939 17.64C40.2272 17.9333 41.5472 18.52 42.4539 19.4C43.3606 20.2533 43.8139 21.4267 43.8139 22.92C43.8139 24.9467 43.0139 26.5467 41.4139 27.72C39.8406 28.8667 37.7339 29.44 35.0939 29.44ZM65.0733 29.44C63.6333 29.44 62.3399 29.16 61.1933 28.6C60.0466 28.04 59.1533 27.28 58.5133 26.32C57.8733 25.36 57.5533 24.28 57.5533 23.08C57.5533 21.64 57.9266 20.5067 58.6733 19.68C59.4199 18.8267 60.6333 18.2267 62.3133 17.88C63.9933 17.5067 66.2199 17.32 68.9933 17.32H71.1133V20.44H69.0333C67.6733 20.44 66.5666 20.52 65.7133 20.68C64.8866 20.8133 64.2866 21.0533 63.9133 21.4C63.5666 21.7467 63.3933 22.2267 63.3933 22.84C63.3933 23.5867 63.6466 24.2 64.1533 24.68C64.6866 25.16 65.4466 25.4 66.4333 25.4C67.2066 25.4 67.8866 25.2267 68.4733 24.88C69.0866 24.5067 69.5666 24.0133 69.9133 23.4C70.2599 22.76 70.4333 22.04 70.4333 21.24V16.64C70.4333 15.4667 70.1666 14.64 69.6333 14.16C69.0999 13.6533 68.1933 13.4 66.9133 13.4C66.1933 13.4 65.4066 13.4933 64.5533 13.68C63.7266 13.84 62.8066 14.12 61.7933 14.52C61.2066 14.7867 60.6866 14.8533 60.2333 14.72C59.7799 14.56 59.4333 14.2933 59.1933 13.92C58.9533 13.52 58.8333 13.0933 58.8333 12.64C58.8333 12.16 58.9666 11.7067 59.2333 11.28C59.4999 10.8267 59.9399 10.4933 60.5533 10.28C61.8066 9.77333 62.9799 9.42667 64.0733 9.24C65.1933 9.05333 66.2199 8.96 67.1533 8.96C69.2066 8.96 70.8866 9.26667 72.1933 9.88C73.5266 10.4667 74.5266 11.3867 75.1933 12.64C75.8599 13.8667 76.1933 15.4533 76.1933 17.4V26.28C76.1933 27.2667 75.9533 28.0267 75.4733 28.56C74.9933 29.0933 74.2999 29.36 73.3933 29.36C72.4866 29.36 71.7799 29.0933 71.2733 28.56C70.7933 28.0267 70.5533 27.2667 70.5533 26.28V24.8L70.8333 25.04C70.6733 25.9467 70.3266 26.7333 69.7933 27.4C69.2866 28.04 68.6333 28.5467 67.8333 28.92C67.0333 29.2667 66.1133 29.44 65.0733 29.44ZM94.9908 29.36C94.0041 29.36 93.2441 29.0933 92.7108 28.56C92.2041 28.0267 91.9508 27.2667 91.9508 26.28V12.08C91.9508 11.0933 92.2041 10.3467 92.7108 9.84C93.2441 9.30667 93.9774 9.04 94.9108 9.04C95.8708 9.04 96.6041 9.30667 97.1108 9.84C97.6174 10.3467 97.8708 11.0933 97.8708 12.08V14.64L97.4308 13.04C97.9641 11.8133 98.7908 10.8267 99.9108 10.08C101.031 9.33333 102.351 8.96 103.871 8.96C105.391 8.96 106.657 9.32 107.671 10.04C108.684 10.76 109.404 11.8667 109.831 13.36H109.271C109.857 12 110.751 10.9333 111.951 10.16C113.177 9.36 114.577 8.96 116.151 8.96C117.671 8.96 118.911 9.26667 119.871 9.88C120.857 10.4667 121.591 11.3733 122.071 12.6C122.551 13.8 122.791 15.3333 122.791 17.2V26.28C122.791 27.2667 122.524 28.0267 121.991 28.56C121.484 29.0933 120.751 29.36 119.791 29.36C118.804 29.36 118.044 29.0933 117.511 28.56C117.004 28.0267 116.751 27.2667 116.751 26.28V17.4C116.751 16.0933 116.537 15.1467 116.111 14.56C115.711 13.9467 115.017 13.64 114.031 13.64C112.884 13.64 111.991 14.04 111.351 14.84C110.711 15.64 110.391 16.7733 110.391 18.24V26.28C110.391 27.2667 110.124 28.0267 109.591 28.56C109.084 29.0933 108.351 29.36 107.391 29.36C106.431 29.36 105.684 29.0933 105.151 28.56C104.617 28.0267 104.351 27.2667 104.351 26.28V17.4C104.351 16.0933 104.137 15.1467 103.711 14.56C103.311 13.9467 102.617 13.64 101.631 13.64C100.484 13.64 99.5908 14.04 98.9508 14.84C98.3108 15.64 97.9908 16.7733 97.9908 18.24V26.28C97.9908 28.3333 96.9908 29.36 94.9908 29.36ZM134.058 29.44C132.618 29.44 131.324 29.16 130.178 28.6C129.031 28.04 128.138 27.28 127.498 26.32C126.858 25.36 126.538 24.28 126.538 23.08C126.538 21.64 126.911 20.5067 127.658 19.68C128.404 18.8267 129.618 18.2267 131.298 17.88C132.978 17.5067 135.204 17.32 137.978 17.32H140.098V20.44H138.018C136.658 20.44 135.551 20.52 134.698 20.68C133.871 20.8133 133.271 21.0533 132.898 21.4C132.551 21.7467 132.378 22.2267 132.378 22.84C132.378 23.5867 132.631 24.2 133.138 24.68C133.671 25.16 134.431 25.4 135.418 25.4C136.191 25.4 136.871 25.2267 137.458 24.88C138.071 24.5067 138.551 24.0133 138.898 23.4C139.244 22.76 139.418 22.04 139.418 21.24V16.64C139.418 15.4667 139.151 14.64 138.618 14.16C138.084 13.6533 137.178 13.4 135.898 13.4C135.178 13.4 134.391 13.4933 133.538 13.68C132.711 13.84 131.791 14.12 130.778 14.52C130.191 14.7867 129.671 14.8533 129.218 14.72C128.764 14.56 128.418 14.2933 128.178 13.92C127.938 13.52 127.818 13.0933 127.818 12.64C127.818 12.16 127.951 11.7067 128.218 11.28C128.484 10.8267 128.924 10.4933 129.538 10.28C130.791 9.77333 131.964 9.42667 133.058 9.24C134.178 9.05333 135.204 8.96 136.138 8.96C138.191 8.96 139.871 9.26667 141.178 9.88C142.511 10.4667 143.511 11.3867 144.178 12.64C144.844 13.8667 145.178 15.4533 145.178 17.4V26.28C145.178 27.2667 144.938 28.0267 144.458 28.56C143.978 29.0933 143.284 29.36 142.378 29.36C141.471 29.36 140.764 29.0933 140.258 28.56C139.778 28.0267 139.538 27.2667 139.538 26.28V24.8L139.818 25.04C139.658 25.9467 139.311 26.7333 138.778 27.4C138.271 28.04 137.618 28.5467 136.818 28.92C136.018 29.2667 135.098 29.44 134.058 29.44ZM159.323 29.44C157.483 29.44 155.937 29.1333 154.683 28.52C153.457 27.9067 152.537 27.0133 151.923 25.84C151.337 24.6667 151.043 23.1867 151.043 21.4V13.88H149.363C148.617 13.88 148.03 13.68 147.603 13.28C147.203 12.88 147.003 12.3333 147.003 11.64C147.003 10.8933 147.203 10.3333 147.603 9.96C148.03 9.56 148.617 9.36 149.363 9.36H151.043V6.32C151.043 5.30667 151.31 4.54667 151.843 4.04C152.377 3.50667 153.123 3.24 154.083 3.24C155.07 3.24 155.817 3.50667 156.323 4.04C156.83 4.54667 157.083 5.30667 157.083 6.32V9.36H160.883C161.63 9.36 162.203 9.56 162.603 9.96C163.003 10.3333 163.203 10.8933 163.203 11.64C163.203 12.3333 163.003 12.88 162.603 13.28C162.203 13.68 161.63 13.88 160.883 13.88H157.083V21.16C157.083 22.28 157.337 23.12 157.843 23.68C158.377 24.24 159.217 24.52 160.363 24.52C160.763 24.52 161.137 24.48 161.483 24.4C161.83 24.32 162.15 24.2667 162.443 24.24C162.817 24.2133 163.123 24.3333 163.363 24.6C163.603 24.84 163.723 25.3867 163.723 26.24C163.723 26.88 163.617 27.44 163.403 27.92C163.19 28.4 162.817 28.7467 162.283 28.96C161.937 29.0933 161.457 29.2 160.843 29.28C160.257 29.3867 159.75 29.44 159.323 29.44ZM175.22 29.44C173.087 29.44 171.22 29.0267 169.62 28.2C168.047 27.3467 166.833 26.1467 165.98 24.6C165.127 23.0533 164.7 21.2267 164.7 19.12C164.7 17.5467 164.94 16.1333 165.42 14.88C165.9 13.6267 166.593 12.56 167.5 11.68C168.433 10.8 169.553 10.1333 170.86 9.68C172.167 9.2 173.62 8.96 175.22 8.96C176.047 8.96 176.927 9.06667 177.86 9.28C178.793 9.46667 179.713 9.8 180.62 10.28C181.153 10.52 181.513 10.8667 181.7 11.32C181.913 11.7467 181.993 12.2 181.94 12.68C181.887 13.1333 181.713 13.5467 181.42 13.92C181.153 14.2667 180.807 14.5067 180.38 14.64C179.953 14.7467 179.473 14.6667 178.94 14.4C178.433 14.1067 177.9 13.8933 177.34 13.76C176.807 13.6267 176.3 13.56 175.82 13.56C175.02 13.56 174.313 13.6933 173.7 13.96C173.087 14.2 172.567 14.56 172.14 15.04C171.74 15.4933 171.42 16.0667 171.18 16.76C170.967 17.4533 170.86 18.2533 170.86 19.16C170.86 20.92 171.287 22.3067 172.14 23.32C173.02 24.3067 174.247 24.8 175.82 24.8C176.3 24.8 176.807 24.7467 177.34 24.64C177.873 24.5067 178.407 24.2933 178.94 24C179.473 23.7333 179.953 23.6667 180.38 23.8C180.807 23.9333 181.14 24.1867 181.38 24.56C181.647 24.9067 181.793 25.32 181.82 25.8C181.873 26.2533 181.793 26.7067 181.58 27.16C181.393 27.5867 181.047 27.92 180.54 28.16C179.633 28.6133 178.727 28.9333 177.82 29.12C176.913 29.3333 176.047 29.44 175.22 29.44ZM187.801 29.36C186.815 29.36 186.055 29.0933 185.521 28.56C185.015 28.0267 184.761 27.2667 184.761 26.28V3.52C184.761 2.50667 185.015 1.74667 185.521 1.24C186.055 0.706665 186.815 0.439998 187.801 0.439998C188.761 0.439998 189.495 0.706665 190.001 1.24C190.535 1.74667 190.801 2.50667 190.801 3.52V13.04H190.241C190.855 11.7333 191.761 10.7333 192.961 10.04C194.188 9.32 195.575 8.96 197.121 8.96C198.695 8.96 199.988 9.26667 201.001 9.88C202.015 10.4667 202.775 11.3733 203.281 12.6C203.788 13.8 204.041 15.3333 204.041 17.2V26.28C204.041 27.2667 203.775 28.0267 203.241 28.56C202.735 29.0933 201.988 29.36 201.001 29.36C200.041 29.36 199.295 29.0933 198.761 28.56C198.255 28.0267 198.001 27.2667 198.001 26.28V17.48C198.001 16.12 197.748 15.1467 197.241 14.56C196.761 13.9467 196.015 13.64 195.001 13.64C193.721 13.64 192.695 14.04 191.921 14.84C191.175 15.64 190.801 16.7067 190.801 18.04V26.28C190.801 28.3333 189.801 29.36 187.801 29.36ZM222.642 20.32C222.029 20.32 221.549 20.1333 221.202 19.76C220.856 19.3867 220.642 18.84 220.562 18.12L219.282 4.44C219.149 3.24 219.376 2.28 219.962 1.56C220.549 0.813331 221.442 0.439998 222.642 0.439998C223.789 0.439998 224.656 0.813331 225.242 1.56C225.829 2.28 226.056 3.24 225.922 4.44L224.642 18.12C224.562 18.84 224.349 19.3867 224.002 19.76C223.682 20.1333 223.229 20.32 222.642 20.32ZM222.642 29.2C221.576 29.2 220.722 28.88 220.082 28.24C219.469 27.6 219.162 26.7733 219.162 25.76C219.162 24.7733 219.469 23.9733 220.082 23.36C220.722 22.72 221.576 22.4 222.642 22.4C223.709 22.4 224.536 22.72 225.122 23.36C225.736 23.9733 226.042 24.7733 226.042 25.76C226.042 26.7733 225.736 27.6 225.122 28.24C224.536 28.88 223.709 29.2 222.642 29.2Z" fill="#11AEC6"/>
</svg>
