<svg width="158" height="175" viewBox="0 0 158 175" fill="none" xmlns="http://www.w3.org/2000/svg">
<g filter="url(#filter0_d_7896_120)">
<path d="M118.896 105.625C118.896 131.168 98.1892 151.875 72.646 151.875C47.1028 151.875 26.396 131.168 26.396 105.625C26.396 80.0818 47.1028 59.375 72.646 59.375C98.1892 59.375 118.896 80.0818 118.896 105.625Z" fill="#FFAC2F"/>
<path fill-rule="evenodd" clip-rule="evenodd" d="M122.75 105.625C122.75 133.297 100.317 155.729 72.6457 155.729C44.9739 155.729 22.5415 133.297 22.5415 105.625C22.5415 77.9533 44.9739 55.5209 72.6457 55.5209C100.317 55.5209 122.75 77.9533 122.75 105.625ZM72.6457 151.875C98.1888 151.875 118.896 131.168 118.896 105.625C118.896 80.0819 98.1888 59.375 72.6457 59.375C47.1025 59.375 26.3957 80.0819 26.3957 105.625C26.3957 131.168 47.1025 151.875 72.6457 151.875Z" fill="white"/>
<path fill-rule="evenodd" clip-rule="evenodd" d="M72.646 151.875C98.1892 151.875 118.896 131.168 118.896 105.625C118.896 80.0818 98.1892 59.375 72.646 59.375C70.8093 59.375 68.9976 59.4821 67.2168 59.6903C84.6549 62.018 98.1058 76.9512 98.1058 95.026C98.1058 114.716 82.1443 130.677 62.4548 130.677C43.8973 130.677 28.6515 116.498 26.9597 98.3829C26.5886 100.742 26.396 103.161 26.396 105.625C26.396 131.168 47.1028 151.875 72.646 151.875Z" fill="#FF862F"/>
<path d="M101.966 93.7872C101.966 95.8398 100.302 97.5037 98.2492 97.5037C96.1967 97.5037 94.5327 95.8398 94.5327 93.7872C94.5327 91.7346 96.1967 90.0707 98.2492 90.0707C100.302 90.0707 101.966 91.7346 101.966 93.7872Z" fill="#DD7429"/>
<path d="M113.115 101.22C113.115 103.273 111.451 104.937 109.399 104.937C107.346 104.937 105.682 103.273 105.682 101.22C105.682 99.1677 107.346 97.5038 109.399 97.5038C111.451 97.5038 113.115 99.1677 113.115 101.22Z" fill="#DD7429"/>
<path d="M111.257 89.1415C111.257 90.6809 110.009 91.9289 108.47 91.9289C106.93 91.9289 105.682 90.6809 105.682 89.1415C105.682 87.6021 106.93 86.3541 108.47 86.3541C110.009 86.3541 111.257 87.6021 111.257 89.1415Z" fill="#DD7429"/>
<path d="M113.523 117.188C113.523 120.38 110.935 122.969 107.742 122.969C104.549 122.969 101.96 120.38 101.96 117.188C101.96 113.995 104.549 111.406 107.742 111.406C110.935 111.406 113.523 113.995 113.523 117.188Z" fill="#DD7429"/>
<path d="M101.966 106.795C101.966 108.848 100.302 110.512 98.2492 110.512C96.1967 110.512 94.5327 108.848 94.5327 106.795C94.5327 104.742 96.1967 103.078 98.2492 103.078C100.302 103.078 101.966 104.742 101.966 106.795Z" fill="#DD7429"/>
<path d="M105.683 129.232C105.683 131.284 104.019 132.948 101.966 132.948C99.9135 132.948 98.2495 131.284 98.2495 129.232C98.2495 127.179 99.9135 125.515 101.966 125.515C104.019 125.515 105.683 127.179 105.683 129.232Z" fill="#DD7429"/>
<path d="M95.9037 136.321C95.9037 138.373 94.2398 140.037 92.1872 140.037C90.1346 140.037 88.4707 138.373 88.4707 136.321C88.4707 134.268 90.1346 132.604 92.1872 132.604C94.2398 132.604 95.9037 134.268 95.9037 136.321Z" fill="#DD7429"/>
<path d="M96.4589 123.657C96.4589 125.71 94.795 127.374 92.7424 127.374C90.6898 127.374 89.0259 125.71 89.0259 123.657C89.0259 121.604 90.6898 119.941 92.7424 119.941C94.795 119.941 96.4589 121.604 96.4589 123.657Z" fill="#DD7429"/>
<path d="M82.8321 141.379C82.8321 142.919 81.5841 144.167 80.0447 144.167C78.5053 144.167 77.2573 142.919 77.2573 141.379C77.2573 139.84 78.5053 138.592 80.0447 138.592C81.5841 138.592 82.8321 139.84 82.8321 141.379Z" fill="#DD7429"/>
<path d="M108.958 58.6375C108.958 58.6375 100.149 43.5903 91.1951 43.1985C82.241 42.8068 74.6276 50.5956 74.6276 50.5956C74.6276 50.5956 81.5317 59.0196 90.4858 59.4113C99.4399 59.8031 108.958 58.6375 108.958 58.6375Z" fill="#64AC1D"/>
<path fill-rule="evenodd" clip-rule="evenodd" d="M112.284 56.6902L108.958 58.6374L109.426 62.463C110.714 62.3052 111.836 61.5101 112.412 60.3472C112.988 59.1844 112.94 57.81 112.284 56.6902ZM74.6275 50.5955C71.8713 47.9014 71.8722 47.9005 71.873 47.8996L71.8792 47.8933L71.89 47.8824L71.92 47.8522C71.9438 47.8283 71.975 47.7972 72.0136 47.7593C72.0908 47.6834 72.1974 47.5803 72.3318 47.4538C72.6004 47.2012 72.9819 46.8542 73.4639 46.4453C74.424 45.631 75.8039 44.5536 77.5037 43.4861C80.8278 41.3985 85.7658 39.103 91.3635 39.3479C94.6249 39.4906 97.5668 40.9374 99.9645 42.623C102.394 44.3309 104.564 46.4949 106.34 48.5324C108.129 50.5849 109.603 52.6077 110.626 54.1093C111.14 54.8635 111.547 55.4946 111.828 55.9432C111.968 56.1677 112.078 56.347 112.155 56.4739C112.193 56.5373 112.223 56.5877 112.245 56.624L112.271 56.6679L112.279 56.6818L112.282 56.6867L112.284 56.6902C112.285 56.691 112.284 56.6902 108.958 58.6374C109.426 62.463 109.427 62.4629 109.426 62.463L109.39 62.4674L109.298 62.4782C109.22 62.4874 109.106 62.5006 108.96 62.5169C108.669 62.5496 108.247 62.5952 107.714 62.6484C106.65 62.7548 105.141 62.8918 103.346 63.0161C99.7735 63.2637 94.9962 63.4664 90.3172 63.2617C84.7196 63.0168 80.0009 60.2988 76.8718 57.9288C75.2717 56.717 73.9912 55.5232 73.1059 54.6281C72.6615 54.1788 72.3118 53.7997 72.0662 53.5246C71.9433 53.3869 71.8462 53.2749 71.7759 53.1926C71.7408 53.1514 71.7123 53.1177 71.6907 53.0918L71.6635 53.0591L71.6537 53.0473L71.6481 53.0404C71.6473 53.0395 71.6466 53.0386 74.6275 50.5955ZM74.6275 50.5955L71.8713 47.9014C70.4981 49.3062 70.4013 51.5191 71.6466 53.0386L74.6275 50.5955ZM106.556 55.0167C103.331 50.5379 97.2968 43.4653 91.195 43.1984C82.2409 42.8066 74.6275 50.5955 74.6275 50.5955C74.6275 50.5955 81.5316 59.0195 90.4857 59.4112C95.676 59.6383 101.056 59.3421 104.662 59.053C107.276 58.8433 108.958 58.6374 108.958 58.6374C108.958 58.6374 108.064 57.1104 106.556 55.0167Z" fill="white"/>
<path d="M119.989 23.3533C119.989 23.3533 109.403 42.0042 98.1051 47.9599C86.8072 53.9155 72.2566 48.5151 72.2566 48.5151C72.2566 48.5151 76.0235 33.4587 87.3215 27.5031C98.6195 21.5475 119.989 23.3533 119.989 23.3533Z" fill="#87D623"/>
<path fill-rule="evenodd" clip-rule="evenodd" d="M123.341 25.2558L119.989 23.3533L120.314 19.5128C121.623 19.6235 122.786 20.3936 123.399 21.556C124.011 22.7184 123.99 24.113 123.341 25.2558ZM115.628 23.1379C118.303 23.2108 119.989 23.3533 119.989 23.3533C119.989 23.3533 119.154 24.8247 117.703 27.0729C113.986 32.829 106.23 43.677 98.1053 47.9599C86.8074 53.9155 72.2568 48.5151 72.2568 48.5151C72.2568 48.5151 76.0237 33.4587 87.3217 27.5031C95.4463 23.2203 108.779 22.9512 115.628 23.1379ZM72.2568 48.5151C68.5178 47.5797 68.5181 47.5785 68.5184 47.5773L68.5208 47.5679L68.5252 47.5506L68.5383 47.4997C68.5491 47.4586 68.5637 47.4032 68.5824 47.3343C68.6198 47.1966 68.6735 47.0046 68.7445 46.7645C68.8862 46.2846 69.0976 45.6102 69.3864 44.7897C69.9624 43.1535 70.8559 40.9103 72.136 38.4587C74.6547 33.6345 78.8832 27.5945 85.5244 24.0936C91.9844 20.6883 100.899 19.6404 107.725 19.3443C111.227 19.1924 114.355 19.2336 116.608 19.3124C117.737 19.3519 118.651 19.4009 119.288 19.4406C119.607 19.4605 119.857 19.478 120.031 19.4908C120.117 19.4972 120.185 19.5024 120.232 19.5062L120.288 19.5107L120.305 19.5121L120.314 19.5128C120.314 19.5129 120.314 19.5128 119.989 23.3533C123.341 25.2558 123.341 25.2551 123.341 25.2558L123.337 25.2634L123.329 25.2778L123.301 25.3266C123.277 25.368 123.243 25.4267 123.199 25.5019C123.112 25.6522 122.985 25.8683 122.821 26.1425C122.494 26.6908 122.018 27.4726 121.413 28.426C120.204 30.3296 118.471 32.9337 116.366 35.7369C112.265 41.2014 106.363 47.964 99.9026 51.3693C93.2614 54.8702 85.8888 54.9456 80.4854 54.2976C77.7394 53.9683 75.3837 53.4378 73.7084 52.9885C72.8682 52.7631 72.1923 52.5563 71.7163 52.4021C71.4781 52.325 71.2894 52.2608 71.1546 52.2138C71.0872 52.1903 71.0332 52.1711 70.9933 52.1567L70.9438 52.1388L70.9271 52.1327L70.918 52.1293C70.9168 52.1289 70.9157 52.1285 72.2568 48.5151ZM68.5178 47.5797L72.2568 48.5151L70.9157 52.1285C69.0739 51.4449 68.041 49.4855 68.5178 47.5797Z" fill="white"/>
<path d="M97.1278 46.2413C106.734 41.1777 116.027 25.8767 116.027 25.8767C94.1846 31.4426 79.8708 42.4579 75.4442 47.2697C75.4442 47.2697 87.5221 51.3049 97.1278 46.2413Z" fill="#79C01E"/>
<path d="M55.1985 38.4701C59.1567 40.1041 68.7921 55.5208 71.472 63.3519C71.6956 64.0052 73.4903 63.3221 73.3031 62.7513C72.2121 55.5236 67.8285 38.177 63.0108 32.3958C57.3623 32.7313 55.2119 36.8854 55.1985 38.4701Z" fill="#8C5936"/>
<path fill-rule="evenodd" clip-rule="evenodd" d="M53.6927 42.018C52.2591 41.4097 51.3311 39.9972 51.3443 38.4375C51.3616 36.3874 52.5014 34.0503 54.2304 32.2752C56.1274 30.3277 58.9725 28.7747 62.7821 28.5484C64.004 28.4758 65.1878 28.988 65.9715 29.9284C67.5295 31.798 68.8806 34.3656 70.0345 37.0294C71.2137 39.7519 72.2944 42.8305 73.2381 45.8977C75.0893 51.9151 76.4899 58.1411 77.0853 61.989C77.5565 64.1349 76.1678 65.6168 75.74 66.0112C75.108 66.594 74.394 66.9433 73.8278 67.1438C73.2722 67.3405 72.446 67.5404 71.51 67.4504C70.6113 67.3641 68.5876 66.8275 67.8253 64.5998C66.6305 61.1084 63.7386 55.5959 60.5725 50.6714C59.0069 48.2363 57.4427 46.0525 56.0764 44.4171C55.3916 43.5976 54.8002 42.9684 54.3205 42.529C53.8921 42.1365 53.6866 42.0201 53.6884 42.0168C53.6886 42.0165 53.69 42.0169 53.6927 42.018ZM73.3029 62.7513C73.3017 62.7431 73.3004 62.7348 73.2992 62.7266C73.1741 61.9009 73.0064 60.9444 72.8002 59.889C72.466 58.1782 72.0308 56.2076 71.5126 54.1136C69.5464 46.1678 66.385 36.445 63.0106 32.3957C60.1427 32.5661 58.1765 33.7209 56.934 35.0239C56.7048 35.2643 56.5003 35.5097 56.3192 35.7549C55.5486 36.7984 55.2037 37.8384 55.1983 38.4701C58.0535 39.6488 63.8628 47.9991 67.8846 55.5007C68.8236 57.2522 69.6652 58.9574 70.3489 60.5142C70.7439 61.4135 71.0862 62.2633 71.3643 63.044C71.4013 63.1479 71.4371 63.2505 71.4718 63.3519C71.6954 64.0052 73.4901 63.3221 73.3029 62.7513ZM69.478 63.2352C69.5064 63.4633 69.5588 63.7027 69.6407 63.9525C69.5738 63.7484 69.524 63.539 69.4919 63.3266C69.4874 63.2963 69.4827 63.2658 69.478 63.2352Z" fill="white"/>
<path d="M64.2938 33.0651C65.3252 34.4991 64.1351 37.119 61.6357 38.9167C59.1362 40.7144 56.2739 41.0093 55.2425 39.5753C54.2111 38.1413 55.4012 35.5214 57.9006 33.7237C60.4001 31.926 63.2624 31.6311 64.2938 33.0651Z" fill="#C27A49"/>
<path d="M65.8135 76.0697C69.0284 81.5872 64.9254 89.9693 56.6491 94.7916C48.3729 99.614 39.0575 99.0504 35.8426 93.5329C32.6277 88.0154 36.7307 79.6333 45.007 74.811C53.2832 69.9887 62.5986 70.5522 65.8135 76.0697Z" fill="#FFC671"/>
<path fill-rule="evenodd" clip-rule="evenodd" d="M49.6808 80.871C50.8174 82.6707 50.2797 85.0511 48.4799 86.1876C47.1067 87.0548 46.0464 88.104 45.2455 89.3394C44.0876 91.1256 41.7011 91.6349 39.9149 90.477C38.1288 89.3192 37.6195 86.9326 38.7773 85.1464C40.2138 82.9305 42.0939 81.1037 44.3642 79.67C46.1639 78.5335 48.5443 79.0712 49.6808 80.871Z" fill="white"/>
</g>
<defs>
<filter id="filter0_d_7896_120" x="0.441503" y="0.141821" width="157.502" height="192.687" filterUnits="userSpaceOnUse" color-interpolation-filters="sRGB">
<feFlood flood-opacity="0" result="BackgroundImageFix"/>
<feColorMatrix in="SourceAlpha" type="matrix" values="0 0 0 0 0 0 0 0 0 0 0 0 0 0 0 0 0 0 127 0" result="hardAlpha"/>
<feOffset dx="6" dy="9"/>
<feGaussianBlur stdDeviation="14.05"/>
<feComposite in2="hardAlpha" operator="out"/>
<feColorMatrix type="matrix" values="0 0 0 0 0.988285 0 0 0 0 0.690939 0 0 0 0 0.477145 0 0 0 1 0"/>
<feBlend mode="normal" in2="BackgroundImageFix" result="effect1_dropShadow_7896_120"/>
<feBlend mode="normal" in="SourceGraphic" in2="effect1_dropShadow_7896_120" result="shape"/>
</filter>
</defs>
</svg>
