<svg width="198" height="23" viewBox="0 0 198 23" fill="none" xmlns="http://www.w3.org/2000/svg">
<path d="M7.08725 18.264C5.82325 18.264 4.71925 18.016 3.77525 17.52C2.84725 17.024 2.12725 16.312 1.61525 15.384C1.10325 14.456 0.84725 13.36 0.84725 12.096C0.84725 11.152 0.99125 10.304 1.27925 9.552C1.56725 8.8 1.98325 8.16 2.52725 7.632C3.08725 7.088 3.75125 6.68 4.51925 6.408C5.28725 6.12 6.14325 5.976 7.08725 5.976C8.35125 5.976 9.44725 6.224 10.3753 6.72C11.3193 7.216 12.0473 7.92 12.5593 8.832C13.0873 9.744 13.3513 10.832 13.3513 12.096C13.3513 13.056 13.1993 13.912 12.8953 14.664C12.6073 15.416 12.1913 16.064 11.6473 16.608C11.1033 17.152 10.4393 17.568 9.65525 17.856C8.88725 18.128 8.03125 18.264 7.08725 18.264ZM7.08725 15.552C7.61525 15.552 8.07125 15.424 8.45525 15.168C8.83925 14.912 9.14325 14.536 9.36725 14.04C9.59125 13.528 9.70325 12.88 9.70325 12.096C9.70325 10.928 9.46325 10.072 8.98325 9.528C8.50325 8.968 7.87125 8.688 7.08725 8.688C6.57525 8.688 6.11925 8.808 5.71925 9.048C5.33525 9.288 5.03125 9.664 4.80725 10.176C4.59925 10.672 4.49525 11.312 4.49525 12.096C4.49525 13.264 4.73525 14.136 5.21525 14.712C5.69525 15.272 6.31925 15.552 7.08725 15.552ZM21.2229 18.264C20.1189 18.264 19.1909 18.08 18.4389 17.712C17.7029 17.344 17.1509 16.808 16.7829 16.104C16.4309 15.4 16.2549 14.512 16.2549 13.44V8.928H15.2469C14.7989 8.928 14.4469 8.808 14.1909 8.568C13.9509 8.328 13.8309 8 13.8309 7.584C13.8309 7.136 13.9509 6.8 14.1909 6.576C14.4469 6.336 14.7989 6.216 15.2469 6.216H16.2549V4.392C16.2549 3.784 16.4149 3.328 16.7349 3.024C17.0549 2.704 17.5029 2.544 18.0789 2.544C18.6709 2.544 19.1189 2.704 19.4229 3.024C19.7269 3.328 19.8789 3.784 19.8789 4.392V6.216H22.1589C22.6069 6.216 22.9509 6.336 23.1909 6.576C23.4309 6.8 23.5509 7.136 23.5509 7.584C23.5509 8 23.4309 8.328 23.1909 8.568C22.9509 8.808 22.6069 8.928 22.1589 8.928H19.8789V13.296C19.8789 13.968 20.0309 14.472 20.3349 14.808C20.6549 15.144 21.1589 15.312 21.8469 15.312C22.0869 15.312 22.3109 15.288 22.5189 15.24C22.7269 15.192 22.9189 15.16 23.0949 15.144C23.3189 15.128 23.5029 15.2 23.6469 15.36C23.7909 15.504 23.8629 15.832 23.8629 16.344C23.8629 16.728 23.7989 17.064 23.6709 17.352C23.5429 17.64 23.3189 17.848 22.9989 17.976C22.7909 18.056 22.5029 18.12 22.1349 18.168C21.7829 18.232 21.4789 18.264 21.2229 18.264ZM27.341 18.216C26.749 18.216 26.293 18.056 25.973 17.736C25.669 17.416 25.517 16.96 25.517 16.368V2.712C25.517 2.104 25.669 1.648 25.973 1.344C26.293 1.024 26.749 0.863999 27.341 0.863999C27.917 0.863999 28.357 1.024 28.661 1.344C28.981 1.648 29.141 2.104 29.141 2.712V8.424H28.805C29.173 7.64 29.717 7.04 30.437 6.624C31.173 6.192 32.005 5.976 32.933 5.976C33.877 5.976 34.653 6.16 35.261 6.528C35.869 6.88 36.325 7.424 36.629 8.16C36.933 8.88 37.085 9.8 37.085 10.92V16.368C37.085 16.96 36.925 17.416 36.605 17.736C36.301 18.056 35.853 18.216 35.261 18.216C34.685 18.216 34.237 18.056 33.917 17.736C33.613 17.416 33.461 16.96 33.461 16.368V11.088C33.461 10.272 33.309 9.688 33.005 9.336C32.717 8.968 32.269 8.784 31.661 8.784C30.893 8.784 30.277 9.024 29.813 9.504C29.365 9.984 29.141 10.624 29.141 11.424V16.368C29.141 17.6 28.541 18.216 27.341 18.216ZM45.9104 18.264C44.5184 18.264 43.3184 18.016 42.3104 17.52C41.3184 17.008 40.5504 16.296 40.0064 15.384C39.4784 14.456 39.2144 13.368 39.2144 12.12C39.2144 10.904 39.4704 9.84 39.9824 8.928C40.4944 8 41.2064 7.28 42.1184 6.768C43.0464 6.24 44.0944 5.976 45.2624 5.976C46.1104 5.976 46.8784 6.12 47.5664 6.408C48.2544 6.68 48.8464 7.08 49.3424 7.608C49.8384 8.12 50.2144 8.752 50.4704 9.504C50.7264 10.24 50.8544 11.064 50.8544 11.976C50.8544 12.28 50.7584 12.512 50.5664 12.672C50.3744 12.816 50.0944 12.888 49.7264 12.888H42.1904V11.016H48.2384L47.8544 11.352C47.8544 10.696 47.7584 10.152 47.5664 9.72C47.3744 9.272 47.0944 8.936 46.7264 8.712C46.3744 8.488 45.9344 8.376 45.4064 8.376C44.8144 8.376 44.3104 8.512 43.8944 8.784C43.4784 9.056 43.1584 9.448 42.9344 9.96C42.7104 10.472 42.5984 11.088 42.5984 11.808V12C42.5984 13.216 42.8784 14.112 43.4384 14.688C44.0144 15.264 44.8624 15.552 45.9824 15.552C46.3664 15.552 46.8064 15.504 47.3024 15.408C47.7984 15.312 48.2624 15.16 48.6944 14.952C49.0624 14.776 49.3904 14.72 49.6784 14.784C49.9664 14.832 50.1904 14.96 50.3504 15.168C50.5104 15.376 50.5984 15.616 50.6144 15.888C50.6464 16.16 50.5904 16.432 50.4464 16.704C50.3024 16.96 50.0624 17.176 49.7264 17.352C49.1824 17.656 48.5664 17.88 47.8784 18.024C47.2064 18.184 46.5504 18.264 45.9104 18.264ZM54.8343 18.216C54.2263 18.216 53.7623 18.056 53.4423 17.736C53.1223 17.416 52.9623 16.96 52.9623 16.368V7.848C52.9623 7.256 53.1143 6.808 53.4183 6.504C53.7383 6.184 54.1783 6.024 54.7383 6.024C55.3143 6.024 55.7543 6.184 56.0583 6.504C56.3623 6.808 56.5143 7.256 56.5143 7.848V9.096H56.2743C56.4663 8.136 56.8903 7.392 57.5463 6.864C58.2023 6.336 59.0503 6.04 60.0903 5.976C60.4903 5.944 60.7943 6.048 61.0023 6.288C61.2263 6.512 61.3463 6.888 61.3623 7.416C61.3943 7.912 61.2903 8.304 61.0503 8.592C60.8263 8.88 60.4423 9.056 59.8983 9.12L59.3463 9.168C58.4343 9.248 57.7543 9.512 57.3063 9.96C56.8743 10.408 56.6583 11.056 56.6583 11.904V16.368C56.6583 16.96 56.4983 17.416 56.1783 17.736C55.8743 18.056 55.4263 18.216 54.8343 18.216ZM68.4275 18.216C67.9475 18.216 67.5395 18.104 67.2035 17.88C66.8675 17.64 66.5955 17.264 66.3875 16.752L63.0035 8.376C62.8275 7.928 62.7715 7.536 62.8355 7.2C62.8995 6.848 63.0675 6.568 63.3395 6.36C63.6275 6.136 64.0195 6.024 64.5155 6.024C64.9315 6.024 65.2755 6.128 65.5475 6.336C65.8195 6.528 66.0515 6.904 66.2435 7.464L68.8835 14.496H68.3315L71.0675 7.152C71.1955 6.768 71.3795 6.488 71.6195 6.312C71.8755 6.12 72.2035 6.024 72.6035 6.024C73.0035 6.024 73.3235 6.12 73.5635 6.312C73.8195 6.504 74.0195 6.784 74.1635 7.152L76.8515 14.496H76.3955L79.0115 7.368C79.2035 6.856 79.4515 6.504 79.7555 6.312C80.0595 6.12 80.3875 6.024 80.7395 6.024C81.1875 6.024 81.5315 6.136 81.7715 6.36C82.0275 6.584 82.1715 6.872 82.2035 7.224C82.2515 7.576 82.1875 7.96 82.0115 8.376L78.6515 16.752C78.4595 17.248 78.1875 17.616 77.8355 17.856C77.4995 18.096 77.0915 18.216 76.6115 18.216C76.1475 18.216 75.7395 18.096 75.3875 17.856C75.0515 17.616 74.7795 17.248 74.5715 16.752L71.6915 9.264H73.2515L70.4435 16.728C70.2515 17.224 69.9875 17.6 69.6515 17.856C69.3155 18.096 68.9075 18.216 68.4275 18.216ZM86.0754 18.192C85.4834 18.192 85.0274 18.024 84.7074 17.688C84.4034 17.336 84.2514 16.848 84.2514 16.224V8.016C84.2514 7.376 84.4034 6.888 84.7074 6.552C85.0274 6.2 85.4834 6.024 86.0754 6.024C86.6514 6.024 87.0914 6.2 87.3954 6.552C87.7154 6.888 87.8754 7.376 87.8754 8.016V16.224C87.8754 16.848 87.7234 17.336 87.4194 17.688C87.1154 18.024 86.6674 18.192 86.0754 18.192ZM86.0754 4.056C85.4034 4.056 84.8834 3.904 84.5154 3.6C84.1634 3.28 83.9874 2.832 83.9874 2.256C83.9874 1.664 84.1634 1.216 84.5154 0.912C84.8834 0.591999 85.4034 0.431999 86.0754 0.431999C86.7474 0.431999 87.2594 0.591999 87.6114 0.912C87.9634 1.216 88.1394 1.664 88.1394 2.256C88.1394 2.832 87.9634 3.28 87.6114 3.6C87.2594 3.904 86.7474 4.056 86.0754 4.056ZM95.1853 18.264C94.4813 18.264 93.7533 18.2 93.0013 18.072C92.2653 17.944 91.5933 17.728 90.9853 17.424C90.6653 17.264 90.4333 17.064 90.2893 16.824C90.1613 16.568 90.1053 16.312 90.1213 16.056C90.1373 15.8 90.2173 15.568 90.3613 15.36C90.5213 15.152 90.7213 15.016 90.9613 14.952C91.2173 14.872 91.4973 14.896 91.8013 15.024C92.4573 15.296 93.0573 15.488 93.6013 15.6C94.1453 15.712 94.6813 15.768 95.2093 15.768C95.8973 15.768 96.3933 15.664 96.6973 15.456C97.0173 15.232 97.1773 14.944 97.1773 14.592C97.1773 14.272 97.0733 14.032 96.8653 13.872C96.6573 13.712 96.3533 13.6 95.9533 13.536L93.4333 13.08C92.4413 12.904 91.6733 12.544 91.1293 12C90.6013 11.44 90.3373 10.728 90.3373 9.864C90.3373 9.064 90.5613 8.376 91.0093 7.8C91.4573 7.208 92.0733 6.76 92.8573 6.456C93.6573 6.136 94.5613 5.976 95.5693 5.976C96.2893 5.976 96.9533 6.04 97.5613 6.168C98.1693 6.296 98.7533 6.504 99.3133 6.792C99.6013 6.936 99.8013 7.128 99.9133 7.368C100.041 7.608 100.081 7.856 100.033 8.112C100.001 8.368 99.9053 8.6 99.7453 8.808C99.5853 9.016 99.3773 9.152 99.1213 9.216C98.8813 9.28 98.6013 9.248 98.2813 9.12C97.7693 8.88 97.2973 8.712 96.8653 8.616C96.4333 8.504 96.0173 8.448 95.6172 8.448C94.8973 8.448 94.3773 8.568 94.0573 8.808C93.7373 9.032 93.5773 9.32 93.5773 9.672C93.5773 9.944 93.6653 10.176 93.8413 10.368C94.0333 10.544 94.3213 10.664 94.7053 10.728L97.2253 11.184C98.2653 11.36 99.0573 11.712 99.6013 12.24C100.145 12.752 100.417 13.456 100.417 14.352C100.417 15.568 99.9373 16.528 98.9773 17.232C98.0333 17.92 96.7693 18.264 95.1853 18.264ZM108.606 18.264C107.214 18.264 106.014 18.016 105.006 17.52C104.014 17.008 103.246 16.296 102.702 15.384C102.174 14.456 101.91 13.368 101.91 12.12C101.91 10.904 102.166 9.84 102.678 8.928C103.19 8 103.902 7.28 104.814 6.768C105.742 6.24 106.79 5.976 107.958 5.976C108.806 5.976 109.574 6.12 110.262 6.408C110.95 6.68 111.542 7.08 112.038 7.608C112.534 8.12 112.91 8.752 113.166 9.504C113.422 10.24 113.55 11.064 113.55 11.976C113.55 12.28 113.454 12.512 113.262 12.672C113.07 12.816 112.79 12.888 112.422 12.888H104.886V11.016H110.934L110.55 11.352C110.55 10.696 110.454 10.152 110.262 9.72C110.07 9.272 109.79 8.936 109.422 8.712C109.07 8.488 108.63 8.376 108.102 8.376C107.51 8.376 107.006 8.512 106.59 8.784C106.174 9.056 105.854 9.448 105.63 9.96C105.406 10.472 105.294 11.088 105.294 11.808V12C105.294 13.216 105.574 14.112 106.134 14.688C106.71 15.264 107.558 15.552 108.678 15.552C109.062 15.552 109.502 15.504 109.998 15.408C110.494 15.312 110.958 15.16 111.39 14.952C111.758 14.776 112.086 14.72 112.374 14.784C112.662 14.832 112.886 14.96 113.046 15.168C113.206 15.376 113.294 15.616 113.31 15.888C113.342 16.16 113.286 16.432 113.142 16.704C112.998 16.96 112.758 17.176 112.422 17.352C111.878 17.656 111.262 17.88 110.574 18.024C109.902 18.184 109.246 18.264 108.606 18.264ZM124.233 18.216C123.625 18.216 123.161 18.056 122.841 17.736C122.521 17.416 122.361 16.96 122.361 16.368V7.848C122.361 7.256 122.513 6.808 122.817 6.504C123.137 6.184 123.577 6.024 124.137 6.024C124.713 6.024 125.153 6.184 125.457 6.504C125.761 6.808 125.913 7.256 125.913 7.848V9.096H125.673C125.865 8.136 126.289 7.392 126.945 6.864C127.601 6.336 128.449 6.04 129.489 5.976C129.889 5.944 130.193 6.048 130.401 6.288C130.625 6.512 130.745 6.888 130.761 7.416C130.793 7.912 130.689 8.304 130.449 8.592C130.225 8.88 129.841 9.056 129.297 9.12L128.745 9.168C127.833 9.248 127.153 9.512 126.705 9.96C126.273 10.408 126.057 11.056 126.057 11.904V16.368C126.057 16.96 125.897 17.416 125.577 17.736C125.273 18.056 124.825 18.216 124.233 18.216ZM138.16 18.264C136.768 18.264 135.568 18.016 134.56 17.52C133.568 17.008 132.8 16.296 132.256 15.384C131.728 14.456 131.464 13.368 131.464 12.12C131.464 10.904 131.72 9.84 132.232 8.928C132.744 8 133.456 7.28 134.368 6.768C135.296 6.24 136.344 5.976 137.512 5.976C138.36 5.976 139.128 6.12 139.816 6.408C140.504 6.68 141.096 7.08 141.592 7.608C142.088 8.12 142.464 8.752 142.72 9.504C142.976 10.24 143.104 11.064 143.104 11.976C143.104 12.28 143.008 12.512 142.816 12.672C142.624 12.816 142.344 12.888 141.976 12.888H134.44V11.016H140.488L140.104 11.352C140.104 10.696 140.008 10.152 139.816 9.72C139.624 9.272 139.344 8.936 138.976 8.712C138.624 8.488 138.184 8.376 137.656 8.376C137.064 8.376 136.56 8.512 136.144 8.784C135.728 9.056 135.408 9.448 135.184 9.96C134.96 10.472 134.848 11.088 134.848 11.808V12C134.848 13.216 135.128 14.112 135.688 14.688C136.264 15.264 137.112 15.552 138.232 15.552C138.616 15.552 139.056 15.504 139.552 15.408C140.048 15.312 140.512 15.16 140.944 14.952C141.312 14.776 141.64 14.72 141.928 14.784C142.216 14.832 142.44 14.96 142.6 15.168C142.76 15.376 142.848 15.616 142.864 15.888C142.896 16.16 142.84 16.432 142.696 16.704C142.552 16.96 142.312 17.176 141.976 17.352C141.432 17.656 140.816 17.88 140.128 18.024C139.456 18.184 138.8 18.264 138.16 18.264ZM150.926 18.264C149.822 18.264 148.894 18.08 148.142 17.712C147.406 17.344 146.854 16.808 146.486 16.104C146.134 15.4 145.958 14.512 145.958 13.44V8.928H144.95C144.502 8.928 144.15 8.808 143.894 8.568C143.654 8.328 143.534 8 143.534 7.584C143.534 7.136 143.654 6.8 143.894 6.576C144.15 6.336 144.502 6.216 144.95 6.216H145.958V4.392C145.958 3.784 146.118 3.328 146.438 3.024C146.758 2.704 147.206 2.544 147.782 2.544C148.374 2.544 148.822 2.704 149.126 3.024C149.43 3.328 149.582 3.784 149.582 4.392V6.216H151.862C152.31 6.216 152.654 6.336 152.894 6.576C153.134 6.8 153.254 7.136 153.254 7.584C153.254 8 153.134 8.328 152.894 8.568C152.654 8.808 152.31 8.928 151.862 8.928H149.582V13.296C149.582 13.968 149.734 14.472 150.038 14.808C150.358 15.144 150.862 15.312 151.55 15.312C151.79 15.312 152.014 15.288 152.222 15.24C152.43 15.192 152.622 15.16 152.798 15.144C153.022 15.128 153.206 15.2 153.35 15.36C153.494 15.504 153.566 15.832 153.566 16.344C153.566 16.728 153.502 17.064 153.374 17.352C153.246 17.64 153.022 17.848 152.702 17.976C152.494 18.056 152.206 18.12 151.838 18.168C151.486 18.232 151.182 18.264 150.926 18.264ZM156.717 18.216C156.109 18.216 155.645 18.056 155.325 17.736C155.005 17.416 154.845 16.96 154.845 16.368V7.848C154.845 7.256 154.997 6.808 155.301 6.504C155.621 6.184 156.061 6.024 156.621 6.024C157.197 6.024 157.637 6.184 157.941 6.504C158.245 6.808 158.397 7.256 158.397 7.848V9.096H158.157C158.349 8.136 158.773 7.392 159.429 6.864C160.085 6.336 160.933 6.04 161.973 5.976C162.373 5.944 162.677 6.048 162.885 6.288C163.109 6.512 163.229 6.888 163.245 7.416C163.277 7.912 163.173 8.304 162.933 8.592C162.709 8.88 162.325 9.056 161.781 9.12L161.229 9.168C160.317 9.248 159.637 9.512 159.189 9.96C158.757 10.408 158.541 11.056 158.541 11.904V16.368C158.541 16.96 158.381 17.416 158.061 17.736C157.757 18.056 157.309 18.216 156.717 18.216ZM168.678 22.536C168.262 22.536 167.918 22.424 167.646 22.2C167.374 21.976 167.214 21.68 167.166 21.312C167.118 20.96 167.182 20.584 167.358 20.184L168.966 16.632V18.12L164.718 8.376C164.558 7.96 164.502 7.576 164.55 7.224C164.614 6.856 164.79 6.568 165.078 6.36C165.382 6.136 165.798 6.024 166.326 6.024C166.758 6.024 167.102 6.128 167.358 6.336C167.63 6.528 167.878 6.904 168.102 7.464L170.934 14.664H170.166L173.094 7.44C173.318 6.896 173.566 6.528 173.838 6.336C174.126 6.128 174.51 6.024 174.99 6.024C175.406 6.024 175.734 6.136 175.974 6.36C176.23 6.568 176.382 6.848 176.43 7.2C176.494 7.552 176.43 7.936 176.238 8.352L170.598 21.144C170.358 21.688 170.086 22.056 169.782 22.248C169.494 22.44 169.126 22.536 168.678 22.536ZM186.714 18.12C186.074 18.12 185.562 17.928 185.178 17.544C184.81 17.16 184.626 16.664 184.626 16.056C184.626 15.464 184.81 14.984 185.178 14.616C185.562 14.232 186.074 14.04 186.714 14.04C187.354 14.04 187.85 14.232 188.202 14.616C188.57 14.984 188.754 15.464 188.754 16.056C188.754 16.664 188.57 17.16 188.202 17.544C187.85 17.928 187.354 18.12 186.714 18.12ZM186.714 10.176C186.074 10.176 185.562 9.984 185.178 9.6C184.81 9.216 184.626 8.728 184.626 8.136C184.626 7.528 184.81 7.04 185.178 6.672C185.562 6.288 186.074 6.096 186.714 6.096C187.354 6.096 187.85 6.288 188.202 6.672C188.57 7.04 188.754 7.528 188.754 8.136C188.754 8.728 188.57 9.216 188.202 9.6C187.85 9.984 187.354 10.176 186.714 10.176ZM195.085 21.816C194.045 20.248 193.301 18.608 192.853 16.896C192.405 15.184 192.181 13.448 192.181 11.688C192.181 10.504 192.277 9.336 192.469 8.184C192.661 7.032 192.973 5.904 193.405 4.8C193.837 3.68 194.397 2.6 195.085 1.56C195.293 1.224 195.573 1.016 195.925 0.935999C196.293 0.84 196.629 0.864 196.933 1.008C197.253 1.136 197.493 1.376 197.653 1.728C197.813 2.08 197.797 2.528 197.605 3.072C197.253 4.064 196.957 5.032 196.717 5.976C196.493 6.92 196.325 7.856 196.213 8.784C196.117 9.712 196.069 10.68 196.069 11.688C196.069 12.696 196.125 13.664 196.237 14.592C196.349 15.52 196.517 16.456 196.741 17.4C196.981 18.328 197.269 19.296 197.605 20.304C197.797 20.848 197.813 21.296 197.653 21.648C197.493 22 197.253 22.24 196.933 22.368C196.613 22.496 196.277 22.52 195.925 22.44C195.573 22.36 195.293 22.152 195.085 21.816Z" fill="#A6C930"/>
</svg>
