<svg width="168" height="23" viewBox="0 0 168 23" fill="none" xmlns="http://www.w3.org/2000/svg">
<path d="M2.64241 18.216C2.03441 18.216 1.57041 18.048 1.25041 17.712C0.930406 17.376 0.770406 16.904 0.770406 16.296V2.784C0.770406 2.176 0.930406 1.704 1.25041 1.368C1.57041 1.032 2.03441 0.863999 2.64241 0.863999C3.23441 0.863999 3.69041 1.032 4.01041 1.368C4.33041 1.704 4.49041 2.176 4.49041 2.784V16.296C4.49041 16.904 4.33041 17.376 4.01041 17.712C3.70641 18.048 3.25041 18.216 2.64241 18.216ZM10.3194 18.216C9.72741 18.216 9.27141 18.056 8.95141 17.736C8.64741 17.416 8.49541 16.96 8.49541 16.368V8.928H7.63141C7.18341 8.928 6.83141 8.808 6.57541 8.568C6.33541 8.328 6.21541 8 6.21541 7.584C6.21541 7.136 6.33541 6.8 6.57541 6.576C6.83141 6.336 7.18341 6.216 7.63141 6.216H9.55141L8.49541 7.176V6.432C8.49541 4.72 8.91941 3.44 9.76741 2.592C10.6314 1.744 11.8954 1.232 13.5594 1.056L14.3274 0.983999C14.7434 0.951999 15.0714 1.016 15.3114 1.176C15.5674 1.336 15.7354 1.544 15.8154 1.8C15.8954 2.056 15.9114 2.32 15.8634 2.592C15.8154 2.848 15.7034 3.08 15.5274 3.288C15.3674 3.48 15.1434 3.584 14.8554 3.6L14.5194 3.624C13.6554 3.688 13.0394 3.896 12.6714 4.248C12.3034 4.584 12.1194 5.104 12.1194 5.808V6.624L11.6634 6.216H13.8234C14.2874 6.216 14.6394 6.336 14.8794 6.576C15.1194 6.8 15.2394 7.136 15.2394 7.584C15.2394 8 15.1194 8.328 14.8794 8.568C14.6394 8.808 14.2874 8.928 13.8234 8.928H12.1194V16.368C12.1194 17.6 11.5194 18.216 10.3194 18.216ZM29.2346 18.264C28.1306 18.264 27.2026 18.08 26.4506 17.712C25.7146 17.344 25.1626 16.808 24.7946 16.104C24.4426 15.4 24.2666 14.512 24.2666 13.44V8.928H23.2586C22.8106 8.928 22.4586 8.808 22.2026 8.568C21.9626 8.328 21.8426 8 21.8426 7.584C21.8426 7.136 21.9626 6.8 22.2026 6.576C22.4586 6.336 22.8106 6.216 23.2586 6.216H24.2666V4.392C24.2666 3.784 24.4266 3.328 24.7466 3.024C25.0666 2.704 25.5146 2.544 26.0906 2.544C26.6826 2.544 27.1306 2.704 27.4346 3.024C27.7386 3.328 27.8906 3.784 27.8906 4.392V6.216H30.1706C30.6186 6.216 30.9626 6.336 31.2026 6.576C31.4426 6.8 31.5626 7.136 31.5626 7.584C31.5626 8 31.4426 8.328 31.2026 8.568C30.9626 8.808 30.6186 8.928 30.1706 8.928H27.8906V13.296C27.8906 13.968 28.0426 14.472 28.3466 14.808C28.6666 15.144 29.1706 15.312 29.8586 15.312C30.0986 15.312 30.3226 15.288 30.5306 15.24C30.7386 15.192 30.9306 15.16 31.1066 15.144C31.3306 15.128 31.5146 15.2 31.6586 15.36C31.8026 15.504 31.8746 15.832 31.8746 16.344C31.8746 16.728 31.8106 17.064 31.6826 17.352C31.5546 17.64 31.3306 17.848 31.0106 17.976C30.8026 18.056 30.5146 18.12 30.1466 18.168C29.7946 18.232 29.4906 18.264 29.2346 18.264ZM35.3527 18.216C34.7607 18.216 34.3047 18.056 33.9847 17.736C33.6807 17.416 33.5287 16.96 33.5287 16.368V2.712C33.5287 2.104 33.6807 1.648 33.9847 1.344C34.3047 1.024 34.7607 0.863999 35.3527 0.863999C35.9287 0.863999 36.3687 1.024 36.6727 1.344C36.9927 1.648 37.1527 2.104 37.1527 2.712V8.424H36.8167C37.1847 7.64 37.7287 7.04 38.4487 6.624C39.1847 6.192 40.0167 5.976 40.9447 5.976C41.8887 5.976 42.6647 6.16 43.2727 6.528C43.8807 6.88 44.3367 7.424 44.6407 8.16C44.9447 8.88 45.0967 9.8 45.0967 10.92V16.368C45.0967 16.96 44.9367 17.416 44.6167 17.736C44.3127 18.056 43.8647 18.216 43.2727 18.216C42.6967 18.216 42.2487 18.056 41.9287 17.736C41.6247 17.416 41.4727 16.96 41.4727 16.368V11.088C41.4727 10.272 41.3207 9.688 41.0167 9.336C40.7287 8.968 40.2807 8.784 39.6727 8.784C38.9047 8.784 38.2887 9.024 37.8247 9.504C37.3767 9.984 37.1527 10.624 37.1527 11.424V16.368C37.1527 17.6 36.5527 18.216 35.3527 18.216ZM53.9222 18.264C52.5302 18.264 51.3302 18.016 50.3222 17.52C49.3302 17.008 48.5622 16.296 48.0182 15.384C47.4902 14.456 47.2262 13.368 47.2262 12.12C47.2262 10.904 47.4822 9.84 47.9942 8.928C48.5062 8 49.2182 7.28 50.1302 6.768C51.0582 6.24 52.1062 5.976 53.2742 5.976C54.1222 5.976 54.8902 6.12 55.5782 6.408C56.2662 6.68 56.8582 7.08 57.3542 7.608C57.8502 8.12 58.2262 8.752 58.4822 9.504C58.7382 10.24 58.8662 11.064 58.8662 11.976C58.8662 12.28 58.7702 12.512 58.5782 12.672C58.3862 12.816 58.1062 12.888 57.7382 12.888H50.2022V11.016H56.2502L55.8662 11.352C55.8662 10.696 55.7702 10.152 55.5782 9.72C55.3862 9.272 55.1062 8.936 54.7382 8.712C54.3862 8.488 53.9462 8.376 53.4182 8.376C52.8262 8.376 52.3222 8.512 51.9062 8.784C51.4902 9.056 51.1702 9.448 50.9462 9.96C50.7222 10.472 50.6102 11.088 50.6102 11.808V12C50.6102 13.216 50.8902 14.112 51.4502 14.688C52.0262 15.264 52.8742 15.552 53.9942 15.552C54.3782 15.552 54.8182 15.504 55.3142 15.408C55.8102 15.312 56.2742 15.16 56.7062 14.952C57.0742 14.776 57.4022 14.72 57.6902 14.784C57.9782 14.832 58.2022 14.96 58.3622 15.168C58.5222 15.376 58.6102 15.616 58.6262 15.888C58.6582 16.16 58.6022 16.432 58.4582 16.704C58.3142 16.96 58.0742 17.176 57.7382 17.352C57.1942 17.656 56.5782 17.88 55.8902 18.024C55.2182 18.184 54.5622 18.264 53.9222 18.264ZM63.9791 22.536C63.5631 22.536 63.2191 22.424 62.9471 22.2C62.6751 21.976 62.5151 21.68 62.4671 21.312C62.4191 20.96 62.4831 20.584 62.6591 20.184L64.2671 16.632V18.12L60.0191 8.376C59.8591 7.96 59.8031 7.576 59.8511 7.224C59.9151 6.856 60.0911 6.568 60.3791 6.36C60.6831 6.136 61.0991 6.024 61.6271 6.024C62.0591 6.024 62.4031 6.128 62.6591 6.336C62.9311 6.528 63.1791 6.904 63.4031 7.464L66.2351 14.664H65.4671L68.3951 7.44C68.6191 6.896 68.8671 6.528 69.1391 6.336C69.4271 6.128 69.8111 6.024 70.2911 6.024C70.7071 6.024 71.0351 6.136 71.2751 6.36C71.5311 6.568 71.6831 6.848 71.7311 7.2C71.7951 7.552 71.7311 7.936 71.5391 8.352L65.8991 21.144C65.6591 21.688 65.3871 22.056 65.0831 22.248C64.7951 22.44 64.4271 22.536 63.9791 22.536ZM76.0967 7.632C75.8567 7.936 75.6007 8.104 75.3287 8.136C75.0567 8.168 74.8167 8.12 74.6087 7.992C74.4167 7.848 74.3127 7.64 74.2967 7.368C74.2807 7.096 74.4007 6.808 74.6567 6.504C75.0087 6.072 75.2487 5.64 75.3767 5.208C75.5047 4.776 75.5687 4.392 75.5687 4.056L75.6887 5.04C75.0487 5.04 74.5287 4.856 74.1287 4.488C73.7287 4.12 73.5287 3.624 73.5287 3C73.5287 2.392 73.7127 1.904 74.0807 1.536C74.4487 1.152 74.9527 0.959999 75.5927 0.959999C76.2487 0.959999 76.7607 1.176 77.1287 1.608C77.4967 2.04 77.6807 2.656 77.6807 3.456C77.6807 3.872 77.6407 4.304 77.5607 4.752C77.4807 5.184 77.3287 5.64 77.1047 6.12C76.8807 6.584 76.5447 7.088 76.0967 7.632ZM81.971 18.216C81.363 18.216 80.899 18.056 80.579 17.736C80.259 17.416 80.099 16.96 80.099 16.368V7.848C80.099 7.256 80.251 6.808 80.555 6.504C80.875 6.184 81.315 6.024 81.875 6.024C82.451 6.024 82.891 6.184 83.195 6.504C83.499 6.808 83.651 7.256 83.651 7.848V9.096H83.411C83.603 8.136 84.027 7.392 84.683 6.864C85.339 6.336 86.187 6.04 87.227 5.976C87.627 5.944 87.931 6.048 88.139 6.288C88.363 6.512 88.483 6.888 88.499 7.416C88.531 7.912 88.427 8.304 88.187 8.592C87.963 8.88 87.579 9.056 87.035 9.12L86.483 9.168C85.571 9.248 84.891 9.512 84.443 9.96C84.011 10.408 83.795 11.056 83.795 11.904V16.368C83.795 16.96 83.635 17.416 83.315 17.736C83.011 18.056 82.563 18.216 81.971 18.216ZM95.8987 18.264C94.5067 18.264 93.3067 18.016 92.2987 17.52C91.3067 17.008 90.5387 16.296 89.9947 15.384C89.4667 14.456 89.2027 13.368 89.2027 12.12C89.2027 10.904 89.4587 9.84 89.9707 8.928C90.4827 8 91.1947 7.28 92.1067 6.768C93.0347 6.24 94.0827 5.976 95.2507 5.976C96.0987 5.976 96.8667 6.12 97.5547 6.408C98.2427 6.68 98.8347 7.08 99.3307 7.608C99.8267 8.12 100.203 8.752 100.459 9.504C100.715 10.24 100.843 11.064 100.843 11.976C100.843 12.28 100.747 12.512 100.555 12.672C100.363 12.816 100.083 12.888 99.7147 12.888H92.1787V11.016H98.2267L97.8427 11.352C97.8427 10.696 97.7467 10.152 97.5547 9.72C97.3627 9.272 97.0827 8.936 96.7147 8.712C96.3627 8.488 95.9227 8.376 95.3947 8.376C94.8027 8.376 94.2987 8.512 93.8827 8.784C93.4667 9.056 93.1467 9.448 92.9227 9.96C92.6987 10.472 92.5867 11.088 92.5867 11.808V12C92.5867 13.216 92.8667 14.112 93.4267 14.688C94.0027 15.264 94.8507 15.552 95.9707 15.552C96.3547 15.552 96.7947 15.504 97.2907 15.408C97.7867 15.312 98.2507 15.16 98.6827 14.952C99.0507 14.776 99.3787 14.72 99.6667 14.784C99.9547 14.832 100.179 14.96 100.339 15.168C100.499 15.376 100.587 15.616 100.603 15.888C100.635 16.16 100.579 16.432 100.435 16.704C100.291 16.96 100.051 17.176 99.7147 17.352C99.1707 17.656 98.5547 17.88 97.8667 18.024C97.1947 18.184 96.5387 18.264 95.8987 18.264ZM114.166 18.264C113.462 18.264 112.734 18.2 111.982 18.072C111.246 17.944 110.574 17.728 109.966 17.424C109.646 17.264 109.414 17.064 109.27 16.824C109.142 16.568 109.086 16.312 109.102 16.056C109.118 15.8 109.198 15.568 109.342 15.36C109.502 15.152 109.702 15.016 109.942 14.952C110.198 14.872 110.478 14.896 110.782 15.024C111.438 15.296 112.038 15.488 112.582 15.6C113.126 15.712 113.662 15.768 114.19 15.768C114.878 15.768 115.374 15.664 115.678 15.456C115.998 15.232 116.158 14.944 116.158 14.592C116.158 14.272 116.054 14.032 115.846 13.872C115.638 13.712 115.334 13.6 114.934 13.536L112.414 13.08C111.422 12.904 110.654 12.544 110.11 12C109.582 11.44 109.318 10.728 109.318 9.864C109.318 9.064 109.542 8.376 109.99 7.8C110.438 7.208 111.054 6.76 111.838 6.456C112.638 6.136 113.542 5.976 114.55 5.976C115.27 5.976 115.934 6.04 116.542 6.168C117.15 6.296 117.734 6.504 118.294 6.792C118.582 6.936 118.782 7.128 118.894 7.368C119.022 7.608 119.062 7.856 119.014 8.112C118.982 8.368 118.886 8.6 118.726 8.808C118.566 9.016 118.358 9.152 118.102 9.216C117.862 9.28 117.582 9.248 117.262 9.12C116.75 8.88 116.278 8.712 115.846 8.616C115.414 8.504 114.998 8.448 114.598 8.448C113.878 8.448 113.358 8.568 113.038 8.808C112.718 9.032 112.558 9.32 112.558 9.672C112.558 9.944 112.646 10.176 112.822 10.368C113.014 10.544 113.302 10.664 113.686 10.728L116.206 11.184C117.246 11.36 118.038 11.712 118.582 12.24C119.126 12.752 119.398 13.456 119.398 14.352C119.398 15.568 118.918 16.528 117.958 17.232C117.014 17.92 115.75 18.264 114.166 18.264ZM125.45 18.264C124.586 18.264 123.81 18.096 123.122 17.76C122.434 17.424 121.898 16.968 121.514 16.392C121.13 15.816 120.938 15.168 120.938 14.448C120.938 13.584 121.162 12.904 121.61 12.408C122.058 11.896 122.786 11.536 123.794 11.328C124.802 11.104 126.138 10.992 127.802 10.992H129.074V12.864H127.826C127.01 12.864 126.346 12.912 125.834 13.008C125.338 13.088 124.978 13.232 124.754 13.44C124.546 13.648 124.442 13.936 124.442 14.304C124.442 14.752 124.594 15.12 124.898 15.408C125.218 15.696 125.674 15.84 126.266 15.84C126.73 15.84 127.138 15.736 127.49 15.528C127.858 15.304 128.146 15.008 128.354 14.64C128.562 14.256 128.666 13.824 128.666 13.344V10.584C128.666 9.88 128.506 9.384 128.186 9.096C127.866 8.792 127.322 8.64 126.554 8.64C126.122 8.64 125.65 8.696 125.138 8.808C124.642 8.904 124.09 9.072 123.482 9.312C123.13 9.472 122.818 9.512 122.546 9.432C122.274 9.336 122.066 9.176 121.922 8.952C121.778 8.712 121.706 8.456 121.706 8.184C121.706 7.896 121.786 7.624 121.946 7.368C122.106 7.096 122.37 6.896 122.738 6.768C123.49 6.464 124.194 6.256 124.85 6.144C125.522 6.032 126.138 5.976 126.698 5.976C127.93 5.976 128.938 6.16 129.722 6.528C130.522 6.88 131.122 7.432 131.522 8.184C131.922 8.92 132.122 9.872 132.122 11.04V16.368C132.122 16.96 131.978 17.416 131.69 17.736C131.402 18.056 130.986 18.216 130.442 18.216C129.898 18.216 129.474 18.056 129.17 17.736C128.882 17.416 128.738 16.96 128.738 16.368V15.48L128.906 15.624C128.81 16.168 128.602 16.64 128.282 17.04C127.978 17.424 127.586 17.728 127.106 17.952C126.626 18.16 126.074 18.264 125.45 18.264ZM136.698 18.216C136.106 18.216 135.65 18.056 135.33 17.736C135.026 17.416 134.874 16.96 134.874 16.368V7.848C134.874 7.256 135.026 6.808 135.33 6.504C135.65 6.184 136.09 6.024 136.65 6.024C137.226 6.024 137.666 6.184 137.97 6.504C138.274 6.808 138.426 7.256 138.426 7.848V9.384L138.162 8.424C138.482 7.688 138.978 7.096 139.65 6.648C140.322 6.2 141.114 5.976 142.026 5.976C142.938 5.976 143.698 6.192 144.306 6.624C144.914 7.056 145.346 7.72 145.602 8.616H145.266C145.618 7.8 146.154 7.16 146.874 6.696C147.61 6.216 148.45 5.976 149.394 5.976C150.306 5.976 151.05 6.16 151.626 6.528C152.218 6.88 152.658 7.424 152.946 8.16C153.234 8.88 153.378 9.8 153.378 10.92V16.368C153.378 16.96 153.218 17.416 152.898 17.736C152.594 18.056 152.154 18.216 151.578 18.216C150.986 18.216 150.53 18.056 150.21 17.736C149.906 17.416 149.754 16.96 149.754 16.368V11.04C149.754 10.256 149.626 9.688 149.37 9.336C149.13 8.968 148.714 8.784 148.122 8.784C147.434 8.784 146.898 9.024 146.514 9.504C146.13 9.984 145.938 10.664 145.938 11.544V16.368C145.938 16.96 145.778 17.416 145.458 17.736C145.154 18.056 144.714 18.216 144.138 18.216C143.562 18.216 143.114 18.056 142.794 17.736C142.474 17.416 142.314 16.96 142.314 16.368V11.04C142.314 10.256 142.186 9.688 141.93 9.336C141.69 8.968 141.274 8.784 140.682 8.784C139.994 8.784 139.458 9.024 139.074 9.504C138.69 9.984 138.498 10.664 138.498 11.544V16.368C138.498 17.6 137.898 18.216 136.698 18.216ZM162.274 18.264C160.882 18.264 159.682 18.016 158.674 17.52C157.682 17.008 156.914 16.296 156.37 15.384C155.842 14.456 155.578 13.368 155.578 12.12C155.578 10.904 155.834 9.84 156.346 8.928C156.858 8 157.57 7.28 158.482 6.768C159.41 6.24 160.458 5.976 161.626 5.976C162.474 5.976 163.242 6.12 163.93 6.408C164.618 6.68 165.21 7.08 165.706 7.608C166.202 8.12 166.578 8.752 166.834 9.504C167.09 10.24 167.218 11.064 167.218 11.976C167.218 12.28 167.122 12.512 166.93 12.672C166.738 12.816 166.458 12.888 166.09 12.888H158.554V11.016H164.602L164.218 11.352C164.218 10.696 164.122 10.152 163.93 9.72C163.738 9.272 163.458 8.936 163.09 8.712C162.738 8.488 162.298 8.376 161.77 8.376C161.178 8.376 160.674 8.512 160.258 8.784C159.842 9.056 159.522 9.448 159.298 9.96C159.074 10.472 158.962 11.088 158.962 11.808V12C158.962 13.216 159.242 14.112 159.802 14.688C160.378 15.264 161.226 15.552 162.346 15.552C162.73 15.552 163.17 15.504 163.666 15.408C164.162 15.312 164.626 15.16 165.058 14.952C165.426 14.776 165.754 14.72 166.042 14.784C166.33 14.832 166.554 14.96 166.714 15.168C166.874 15.376 166.962 15.616 166.978 15.888C167.01 16.16 166.954 16.432 166.81 16.704C166.666 16.96 166.426 17.176 166.09 17.352C165.546 17.656 164.93 17.88 164.242 18.024C163.57 18.184 162.914 18.264 162.274 18.264Z" fill="#A6C930"/>
</svg>
