<svg width="184" height="85" viewBox="0 0 184 85" fill="none" xmlns="http://www.w3.org/2000/svg">
<path d="M28.6778 29.44C27.5578 29.44 26.4111 29.3467 25.2378 29.16C24.0911 29 22.9845 28.76 21.9178 28.44C20.8778 28.12 19.9445 27.72 19.1178 27.24C18.5311 26.92 18.1178 26.5067 17.8778 26C17.6378 25.4667 17.5445 24.9333 17.5978 24.4C17.6778 23.8667 17.8778 23.4 18.1978 23C18.5445 22.5733 18.9711 22.3067 19.4778 22.2C20.0111 22.0667 20.5978 22.16 21.2378 22.48C22.3311 23.0933 23.5178 23.5467 24.7978 23.84C26.1045 24.1333 27.3978 24.28 28.6778 24.28C30.6245 24.28 32.0111 23.9867 32.8378 23.4C33.6645 22.7867 34.0778 22.0267 34.0778 21.12C34.0778 20.3467 33.7845 19.7333 33.1978 19.28C32.6111 18.8267 31.5845 18.44 30.1178 18.12L25.5978 17.16C23.0378 16.6267 21.1311 15.72 19.8778 14.44C18.6511 13.1333 18.0378 11.4267 18.0378 9.32C18.0378 7.98667 18.3178 6.77333 18.8778 5.68C19.4378 4.58667 20.2245 3.64 21.2378 2.84C22.2511 2.04 23.4511 1.42667 24.8378 0.999998C26.2511 0.573332 27.7978 0.359999 29.4778 0.359999C30.9711 0.359999 32.4378 0.546666 33.8778 0.919999C35.3178 1.26667 36.5845 1.78667 37.6778 2.48C38.2111 2.8 38.5711 3.21333 38.7578 3.72C38.9711 4.2 39.0378 4.69333 38.9578 5.2C38.9045 5.68 38.7045 6.10667 38.3578 6.48C38.0378 6.85333 37.6245 7.09333 37.1178 7.2C36.6111 7.30667 35.9978 7.18667 35.2778 6.84C34.3978 6.38667 33.4645 6.05333 32.4778 5.84C31.4911 5.62667 30.4778 5.52 29.4378 5.52C28.3178 5.52 27.3578 5.66667 26.5578 5.96C25.7845 6.25333 25.1845 6.66667 24.7578 7.2C24.3578 7.73333 24.1578 8.34667 24.1578 9.04C24.1578 9.81333 24.4378 10.44 24.9978 10.92C25.5578 11.4 26.5311 11.7867 27.9178 12.08L32.4378 13.04C35.0511 13.6 36.9978 14.5067 38.2778 15.76C39.5578 16.9867 40.1978 18.6133 40.1978 20.64C40.1978 21.9733 39.9311 23.1867 39.3978 24.28C38.8645 25.3467 38.0911 26.2667 37.0778 27.04C36.0645 27.8133 34.8511 28.4133 33.4378 28.84C32.0245 29.24 30.4378 29.44 28.6778 29.44ZM53.9028 29.44C51.5828 29.44 49.5828 29.0267 47.9028 28.2C46.2495 27.3467 44.9695 26.16 44.0628 24.64C43.1828 23.0933 42.7428 21.28 42.7428 19.2C42.7428 17.1733 43.1695 15.4 44.0228 13.88C44.8761 12.3333 46.0628 11.1333 47.5828 10.28C49.1295 9.4 50.8761 8.96 52.8228 8.96C54.2361 8.96 55.5161 9.2 56.6628 9.68C57.8095 10.1333 58.7961 10.8 59.6228 11.68C60.4495 12.5333 61.0761 13.5867 61.5028 14.84C61.9295 16.0667 62.1428 17.44 62.1428 18.96C62.1428 19.4667 61.9828 19.8533 61.6628 20.12C61.3428 20.36 60.8761 20.48 60.2628 20.48H47.7028V17.36H57.7828L57.1428 17.92C57.1428 16.8267 56.9828 15.92 56.6628 15.2C56.3428 14.4533 55.8761 13.8933 55.2628 13.52C54.6761 13.1467 53.9428 12.96 53.0628 12.96C52.0761 12.96 51.2361 13.1867 50.5428 13.64C49.8495 14.0933 49.3161 14.7467 48.9428 15.6C48.5695 16.4533 48.3828 17.48 48.3828 18.68V19C48.3828 21.0267 48.8495 22.52 49.7828 23.48C50.7428 24.44 52.1561 24.92 54.0228 24.92C54.6628 24.92 55.3961 24.84 56.2228 24.68C57.0495 24.52 57.8228 24.2667 58.5428 23.92C59.1561 23.6267 59.7028 23.5333 60.1828 23.64C60.6628 23.72 61.0361 23.9333 61.3028 24.28C61.5695 24.6267 61.7161 25.0267 61.7428 25.48C61.7961 25.9333 61.7028 26.3867 61.4628 26.84C61.2228 27.2667 60.8228 27.6267 60.2628 27.92C59.3561 28.4267 58.3295 28.8 57.1828 29.04C56.0628 29.3067 54.9695 29.44 53.9028 29.44ZM72.7359 29.44C70.3626 29.44 68.5893 28.7867 67.4159 27.48C66.2426 26.1467 65.6559 24.1733 65.6559 21.56V3.52C65.6559 2.50667 65.9093 1.74667 66.4159 1.24C66.9493 0.706665 67.7093 0.439998 68.6959 0.439998C69.6559 0.439998 70.3893 0.706665 70.8959 1.24C71.4293 1.74667 71.6959 2.50667 71.6959 3.52V21.32C71.6959 22.4133 71.9226 23.2267 72.3759 23.76C72.8559 24.2667 73.4826 24.52 74.2559 24.52C74.4693 24.52 74.6693 24.5067 74.8559 24.48C75.0426 24.4533 75.2426 24.44 75.4559 24.44C75.8826 24.3867 76.1759 24.52 76.3359 24.84C76.5226 25.1333 76.6159 25.7333 76.6159 26.64C76.6159 27.44 76.4559 28.0533 76.1359 28.48C75.8159 28.88 75.3226 29.1467 74.6559 29.28C74.3893 29.3067 74.0826 29.3333 73.7359 29.36C73.3893 29.4133 73.0559 29.44 72.7359 29.44ZM88.9809 29.44C86.6609 29.44 84.6609 29.0267 82.9809 28.2C81.3276 27.3467 80.0476 26.16 79.1409 24.64C78.2609 23.0933 77.8209 21.28 77.8209 19.2C77.8209 17.1733 78.2476 15.4 79.1009 13.88C79.9543 12.3333 81.1409 11.1333 82.6609 10.28C84.2076 9.4 85.9543 8.96 87.9009 8.96C89.3143 8.96 90.5943 9.2 91.7409 9.68C92.8876 10.1333 93.8743 10.8 94.7009 11.68C95.5276 12.5333 96.1543 13.5867 96.5809 14.84C97.0076 16.0667 97.2209 17.44 97.2209 18.96C97.2209 19.4667 97.0609 19.8533 96.7409 20.12C96.4209 20.36 95.9543 20.48 95.3409 20.48H82.7809V17.36H92.8609L92.2209 17.92C92.2209 16.8267 92.0609 15.92 91.7409 15.2C91.4209 14.4533 90.9543 13.8933 90.3409 13.52C89.7543 13.1467 89.0209 12.96 88.1409 12.96C87.1543 12.96 86.3143 13.1867 85.6209 13.64C84.9276 14.0933 84.3943 14.7467 84.0209 15.6C83.6476 16.4533 83.4609 17.48 83.4609 18.68V19C83.4609 21.0267 83.9276 22.52 84.8609 23.48C85.8209 24.44 87.2343 24.92 89.1009 24.92C89.7409 24.92 90.4743 24.84 91.3009 24.68C92.1276 24.52 92.9009 24.2667 93.6209 23.92C94.2343 23.6267 94.7809 23.5333 95.2609 23.64C95.7409 23.72 96.1143 23.9333 96.3809 24.28C96.6476 24.6267 96.7943 25.0267 96.8209 25.48C96.8743 25.9333 96.7809 26.3867 96.5409 26.84C96.3009 27.2667 95.9009 27.6267 95.3409 27.92C94.4343 28.4267 93.4076 28.8 92.2609 29.04C91.1409 29.3067 90.0476 29.44 88.9809 29.44ZM110.294 29.44C108.161 29.44 106.294 29.0267 104.694 28.2C103.121 27.3467 101.907 26.1467 101.054 24.6C100.201 23.0533 99.7741 21.2267 99.7741 19.12C99.7741 17.5467 100.014 16.1333 100.494 14.88C100.974 13.6267 101.667 12.56 102.574 11.68C103.507 10.8 104.627 10.1333 105.934 9.68C107.241 9.2 108.694 8.96 110.294 8.96C111.121 8.96 112.001 9.06667 112.934 9.28C113.867 9.46667 114.787 9.8 115.694 10.28C116.227 10.52 116.587 10.8667 116.774 11.32C116.987 11.7467 117.067 12.2 117.014 12.68C116.961 13.1333 116.787 13.5467 116.494 13.92C116.227 14.2667 115.881 14.5067 115.454 14.64C115.027 14.7467 114.547 14.6667 114.014 14.4C113.507 14.1067 112.974 13.8933 112.414 13.76C111.881 13.6267 111.374 13.56 110.894 13.56C110.094 13.56 109.387 13.6933 108.774 13.96C108.161 14.2 107.641 14.56 107.214 15.04C106.814 15.4933 106.494 16.0667 106.254 16.76C106.041 17.4533 105.934 18.2533 105.934 19.16C105.934 20.92 106.361 22.3067 107.214 23.32C108.094 24.3067 109.321 24.8 110.894 24.8C111.374 24.8 111.881 24.7467 112.414 24.64C112.947 24.5067 113.481 24.2933 114.014 24C114.547 23.7333 115.027 23.6667 115.454 23.8C115.881 23.9333 116.214 24.1867 116.454 24.56C116.721 24.9067 116.867 25.32 116.894 25.8C116.947 26.2533 116.867 26.7067 116.654 27.16C116.467 27.5867 116.121 27.92 115.614 28.16C114.707 28.6133 113.801 28.9333 112.894 29.12C111.987 29.3333 111.121 29.44 110.294 29.44ZM129.593 29.44C127.753 29.44 126.206 29.1333 124.953 28.52C123.726 27.9067 122.806 27.0133 122.193 25.84C121.606 24.6667 121.313 23.1867 121.313 21.4V13.88H119.633C118.886 13.88 118.299 13.68 117.873 13.28C117.473 12.88 117.273 12.3333 117.273 11.64C117.273 10.8933 117.473 10.3333 117.873 9.96C118.299 9.56 118.886 9.36 119.633 9.36H121.313V6.32C121.313 5.30667 121.579 4.54667 122.113 4.04C122.646 3.50667 123.393 3.24 124.353 3.24C125.339 3.24 126.086 3.50667 126.593 4.04C127.099 4.54667 127.353 5.30667 127.353 6.32V9.36H131.153C131.899 9.36 132.473 9.56 132.873 9.96C133.273 10.3333 133.473 10.8933 133.473 11.64C133.473 12.3333 133.273 12.88 132.873 13.28C132.473 13.68 131.899 13.88 131.153 13.88H127.353V21.16C127.353 22.28 127.606 23.12 128.113 23.68C128.646 24.24 129.486 24.52 130.633 24.52C131.033 24.52 131.406 24.48 131.753 24.4C132.099 24.32 132.419 24.2667 132.713 24.24C133.086 24.2133 133.393 24.3333 133.633 24.6C133.873 24.84 133.993 25.3867 133.993 26.24C133.993 26.88 133.886 27.44 133.673 27.92C133.459 28.4 133.086 28.7467 132.553 28.96C132.206 29.0933 131.726 29.2 131.113 29.28C130.526 29.3867 130.019 29.44 129.593 29.44ZM153.937 29.44C152.497 29.44 151.203 29.16 150.057 28.6C148.91 28.04 148.017 27.28 147.377 26.32C146.737 25.36 146.417 24.28 146.417 23.08C146.417 21.64 146.79 20.5067 147.537 19.68C148.283 18.8267 149.497 18.2267 151.177 17.88C152.857 17.5067 155.083 17.32 157.857 17.32H159.977V20.44H157.897C156.537 20.44 155.43 20.52 154.577 20.68C153.75 20.8133 153.15 21.0533 152.777 21.4C152.43 21.7467 152.257 22.2267 152.257 22.84C152.257 23.5867 152.51 24.2 153.017 24.68C153.55 25.16 154.31 25.4 155.297 25.4C156.07 25.4 156.75 25.2267 157.337 24.88C157.95 24.5067 158.43 24.0133 158.777 23.4C159.123 22.76 159.297 22.04 159.297 21.24V16.64C159.297 15.4667 159.03 14.64 158.497 14.16C157.963 13.6533 157.057 13.4 155.777 13.4C155.057 13.4 154.27 13.4933 153.417 13.68C152.59 13.84 151.67 14.12 150.657 14.52C150.07 14.7867 149.55 14.8533 149.097 14.72C148.643 14.56 148.297 14.2933 148.057 13.92C147.817 13.52 147.697 13.0933 147.697 12.64C147.697 12.16 147.83 11.7067 148.097 11.28C148.363 10.8267 148.803 10.4933 149.417 10.28C150.67 9.77333 151.843 9.42667 152.937 9.24C154.057 9.05333 155.083 8.96 156.017 8.96C158.07 8.96 159.75 9.26667 161.057 9.88C162.39 10.4667 163.39 11.3867 164.057 12.64C164.723 13.8667 165.057 15.4533 165.057 17.4V26.28C165.057 27.2667 164.817 28.0267 164.337 28.56C163.857 29.0933 163.163 29.36 162.257 29.36C161.35 29.36 160.643 29.0933 160.137 28.56C159.657 28.0267 159.417 27.2667 159.417 26.28V24.8L159.697 25.04C159.537 25.9467 159.19 26.7333 158.657 27.4C158.15 28.04 157.497 28.5467 156.697 28.92C155.897 29.2667 154.977 29.44 153.937 29.44ZM12.6002 84.44C11.0268 84.44 9.62682 84.0533 8.40016 83.28C7.20016 82.48 6.40016 81.4267 6.00016 80.12L6.44016 78.8V81.28C6.44016 82.2667 6.18682 83.0267 5.68016 83.56C5.17349 84.0933 4.44016 84.36 3.48016 84.36C2.52016 84.36 1.77349 84.0933 1.24016 83.56C0.73349 83.0267 0.480156 82.2667 0.480156 81.28V58.52C0.480156 57.5067 0.73349 56.7467 1.24016 56.24C1.77349 55.7067 2.53349 55.44 3.52016 55.44C4.48016 55.44 5.21349 55.7067 5.72016 56.24C6.25349 56.7467 6.52016 57.5067 6.52016 58.52V68H6.04016C6.46682 66.8 7.28016 65.8267 8.48016 65.08C9.68016 64.3333 11.0535 63.96 12.6002 63.96C14.3335 63.96 15.8402 64.3733 17.1202 65.2C18.4002 66.0267 19.4002 67.2 20.1202 68.72C20.8402 70.24 21.2002 72.0533 21.2002 74.16C21.2002 76.2667 20.8402 78.0933 20.1202 79.64C19.4002 81.1867 18.3868 82.3733 17.0802 83.2C15.8002 84.0267 14.3068 84.44 12.6002 84.44ZM10.8002 79.92C11.6535 79.92 12.4002 79.7067 13.0402 79.28C13.7068 78.8533 14.2135 78.2267 14.5602 77.4C14.9335 76.5467 15.1202 75.4667 15.1202 74.16C15.1202 72.2133 14.7202 70.7867 13.9202 69.88C13.1202 68.9467 12.0802 68.48 10.8002 68.48C9.94682 68.48 9.18682 68.68 8.52016 69.08C7.88016 69.48 7.37349 70.1067 7.00016 70.96C6.62682 71.7867 6.44016 72.8533 6.44016 74.16C6.44016 76.1067 6.84016 77.56 7.64016 78.52C8.44016 79.4533 9.49349 79.92 10.8002 79.92ZM31.9742 84.44C29.6009 84.44 27.8276 83.7867 26.6542 82.48C25.4809 81.1467 24.8942 79.1733 24.8942 76.56V58.52C24.8942 57.5067 25.1476 56.7467 25.6542 56.24C26.1876 55.7067 26.9476 55.44 27.9342 55.44C28.8942 55.44 29.6276 55.7067 30.1342 56.24C30.6676 56.7467 30.9342 57.5067 30.9342 58.52V76.32C30.9342 77.4133 31.1609 78.2267 31.6142 78.76C32.0942 79.2667 32.7209 79.52 33.4942 79.52C33.7076 79.52 33.9076 79.5067 34.0942 79.48C34.2809 79.4533 34.4809 79.44 34.6942 79.44C35.1209 79.3867 35.4142 79.52 35.5742 79.84C35.7609 80.1333 35.8542 80.7333 35.8542 81.64C35.8542 82.44 35.6942 83.0533 35.3742 83.48C35.0542 83.88 34.5609 84.1467 33.8942 84.28C33.6276 84.3067 33.3209 84.3333 32.9742 84.36C32.6276 84.4133 32.2942 84.44 31.9742 84.44ZM45.4545 84.44C43.8012 84.44 42.4279 84.1333 41.3345 83.52C40.2412 82.9067 39.4279 81.9867 38.8945 80.76C38.3879 79.5067 38.1345 77.96 38.1345 76.12V67.08C38.1345 66.0667 38.3879 65.3067 38.8945 64.8C39.4279 64.2933 40.1745 64.04 41.1345 64.04C42.0945 64.04 42.8412 64.2933 43.3745 64.8C43.9079 65.3067 44.1745 66.0667 44.1745 67.08V76.28C44.1745 77.4533 44.4145 78.3333 44.8945 78.92C45.3745 79.48 46.1345 79.76 47.1745 79.76C48.3212 79.76 49.2545 79.36 49.9745 78.56C50.7212 77.7333 51.0945 76.6533 51.0945 75.32V67.08C51.0945 66.0667 51.3479 65.3067 51.8545 64.8C52.3879 64.2933 53.1345 64.04 54.0945 64.04C55.0812 64.04 55.8279 64.2933 56.3345 64.8C56.8679 65.3067 57.1345 66.0667 57.1345 67.08V81.28C57.1345 83.3333 56.1612 84.36 54.2145 84.36C53.2545 84.36 52.5212 84.0933 52.0145 83.56C51.5079 83.0267 51.2545 82.2667 51.2545 81.28V78.6L51.8545 80.16C51.2679 81.52 50.4279 82.5733 49.3345 83.32C48.2412 84.0667 46.9479 84.44 45.4545 84.44ZM72.0083 84.44C69.6883 84.44 67.6883 84.0267 66.0083 83.2C64.3549 82.3467 63.0749 81.16 62.1683 79.64C61.2883 78.0933 60.8483 76.28 60.8483 74.2C60.8483 72.1733 61.2749 70.4 62.1283 68.88C62.9816 67.3333 64.1683 66.1333 65.6883 65.28C67.2349 64.4 68.9816 63.96 70.9283 63.96C72.3416 63.96 73.6216 64.2 74.7683 64.68C75.9149 65.1333 76.9016 65.8 77.7283 66.68C78.5549 67.5333 79.1816 68.5867 79.6083 69.84C80.0349 71.0667 80.2483 72.44 80.2483 73.96C80.2483 74.4667 80.0883 74.8533 79.7683 75.12C79.4483 75.36 78.9816 75.48 78.3683 75.48H65.8083V72.36H75.8883L75.2483 72.92C75.2483 71.8267 75.0883 70.92 74.7683 70.2C74.4483 69.4533 73.9816 68.8933 73.3683 68.52C72.7816 68.1467 72.0483 67.96 71.1683 67.96C70.1816 67.96 69.3416 68.1867 68.6483 68.64C67.9549 69.0933 67.4216 69.7467 67.0483 70.6C66.6749 71.4533 66.4883 72.48 66.4883 73.68V74C66.4883 76.0267 66.9549 77.52 67.8883 78.48C68.8483 79.44 70.2616 79.92 72.1283 79.92C72.7683 79.92 73.5016 79.84 74.3283 79.68C75.1549 79.52 75.9283 79.2667 76.6483 78.92C77.2616 78.6267 77.8083 78.5333 78.2883 78.64C78.7683 78.72 79.1416 78.9333 79.4083 79.28C79.6749 79.6267 79.8216 80.0267 79.8483 80.48C79.9016 80.9333 79.8083 81.3867 79.5683 81.84C79.3283 82.2667 78.9283 82.6267 78.3683 82.92C77.4616 83.4267 76.4349 83.8 75.2883 84.04C74.1683 84.3067 73.0749 84.44 72.0083 84.44ZM104.493 84.44C102.36 84.44 100.493 84.0267 98.8933 83.2C97.3199 82.3467 96.1066 81.1467 95.2533 79.6C94.3999 78.0533 93.9733 76.2267 93.9733 74.12C93.9733 72.5467 94.2133 71.1333 94.6933 69.88C95.1733 68.6267 95.8666 67.56 96.7733 66.68C97.7066 65.8 98.8266 65.1333 100.133 64.68C101.44 64.2 102.893 63.96 104.493 63.96C105.32 63.96 106.2 64.0667 107.133 64.28C108.067 64.4667 108.987 64.8 109.893 65.28C110.427 65.52 110.787 65.8667 110.973 66.32C111.187 66.7467 111.267 67.2 111.213 67.68C111.16 68.1333 110.987 68.5467 110.693 68.92C110.427 69.2667 110.08 69.5067 109.653 69.64C109.227 69.7467 108.747 69.6667 108.213 69.4C107.707 69.1067 107.173 68.8933 106.613 68.76C106.08 68.6267 105.573 68.56 105.093 68.56C104.293 68.56 103.587 68.6933 102.973 68.96C102.36 69.2 101.84 69.56 101.413 70.04C101.013 70.4933 100.693 71.0667 100.453 71.76C100.24 72.4533 100.133 73.2533 100.133 74.16C100.133 75.92 100.56 77.3067 101.413 78.32C102.293 79.3067 103.52 79.8 105.093 79.8C105.573 79.8 106.08 79.7467 106.613 79.64C107.147 79.5067 107.68 79.2933 108.213 79C108.747 78.7333 109.227 78.6667 109.653 78.8C110.08 78.9333 110.413 79.1867 110.653 79.56C110.92 79.9067 111.067 80.32 111.093 80.8C111.147 81.2533 111.067 81.7067 110.853 82.16C110.667 82.5867 110.32 82.92 109.813 83.16C108.907 83.6133 108 83.9333 107.093 84.12C106.187 84.3333 105.32 84.44 104.493 84.44ZM120.597 84.44C119.157 84.44 117.863 84.16 116.717 83.6C115.57 83.04 114.677 82.28 114.037 81.32C113.397 80.36 113.077 79.28 113.077 78.08C113.077 76.64 113.45 75.5067 114.197 74.68C114.943 73.8267 116.157 73.2267 117.837 72.88C119.517 72.5067 121.743 72.32 124.517 72.32H126.637V75.44H124.557C123.197 75.44 122.09 75.52 121.237 75.68C120.41 75.8133 119.81 76.0533 119.437 76.4C119.09 76.7467 118.917 77.2267 118.917 77.84C118.917 78.5867 119.17 79.2 119.677 79.68C120.21 80.16 120.97 80.4 121.957 80.4C122.73 80.4 123.41 80.2267 123.997 79.88C124.61 79.5067 125.09 79.0133 125.437 78.4C125.783 77.76 125.957 77.04 125.957 76.24V71.64C125.957 70.4667 125.69 69.64 125.157 69.16C124.623 68.6533 123.717 68.4 122.437 68.4C121.717 68.4 120.93 68.4933 120.077 68.68C119.25 68.84 118.33 69.12 117.317 69.52C116.73 69.7867 116.21 69.8533 115.757 69.72C115.303 69.56 114.957 69.2933 114.717 68.92C114.477 68.52 114.357 68.0933 114.357 67.64C114.357 67.16 114.49 66.7067 114.757 66.28C115.023 65.8267 115.463 65.4933 116.077 65.28C117.33 64.7733 118.503 64.4267 119.597 64.24C120.717 64.0533 121.743 63.96 122.677 63.96C124.73 63.96 126.41 64.2667 127.717 64.88C129.05 65.4667 130.05 66.3867 130.717 67.64C131.383 68.8667 131.717 70.4533 131.717 72.4V81.28C131.717 82.2667 131.477 83.0267 130.997 83.56C130.517 84.0933 129.823 84.36 128.917 84.36C128.01 84.36 127.303 84.0933 126.797 83.56C126.317 83.0267 126.077 82.2667 126.077 81.28V79.8L126.357 80.04C126.197 80.9467 125.85 81.7333 125.317 82.4C124.81 83.04 124.157 83.5467 123.357 83.92C122.557 84.2667 121.637 84.44 120.597 84.44ZM139.342 84.36C138.329 84.36 137.556 84.0933 137.022 83.56C136.489 83.0267 136.222 82.2667 136.222 81.28V67.08C136.222 66.0933 136.476 65.3467 136.982 64.84C137.516 64.3067 138.249 64.04 139.182 64.04C140.142 64.04 140.876 64.3067 141.382 64.84C141.889 65.3467 142.142 66.0933 142.142 67.08V69.16H141.742C142.062 67.56 142.769 66.32 143.862 65.44C144.956 64.56 146.369 64.0667 148.102 63.96C148.769 63.9067 149.276 64.08 149.622 64.48C149.996 64.8533 150.196 65.48 150.222 66.36C150.276 67.1867 150.102 67.84 149.702 68.32C149.329 68.8 148.689 69.0933 147.782 69.2L146.862 69.28C145.342 69.4133 144.209 69.8533 143.462 70.6C142.742 71.3467 142.382 72.4267 142.382 73.84V81.28C142.382 82.2667 142.116 83.0267 141.582 83.56C141.076 84.0933 140.329 84.36 139.342 84.36ZM159.995 84.44C158.288 84.44 156.782 84.0267 155.475 83.2C154.195 82.3733 153.195 81.1867 152.475 79.64C151.755 78.0933 151.395 76.2667 151.395 74.16C151.395 72.0533 151.755 70.24 152.475 68.72C153.195 67.2 154.195 66.0267 155.475 65.2C156.782 64.3733 158.288 63.96 159.995 63.96C161.542 63.96 162.902 64.3333 164.075 65.08C165.275 65.8267 166.088 66.8 166.515 68H166.075V58.52C166.075 57.5067 166.328 56.7467 166.835 56.24C167.342 55.7067 168.088 55.44 169.075 55.44C170.035 55.44 170.782 55.7067 171.315 56.24C171.848 56.7467 172.115 57.5067 172.115 58.52V81.28C172.115 82.2667 171.848 83.0267 171.315 83.56C170.808 84.0933 170.075 84.36 169.115 84.36C168.155 84.36 167.408 84.0933 166.875 83.56C166.368 83.0267 166.115 82.2667 166.115 81.28V78.56L166.555 80.12C166.182 81.4267 165.382 82.48 164.155 83.28C162.955 84.0533 161.568 84.44 159.995 84.44ZM161.795 79.92C162.675 79.92 163.435 79.7067 164.075 79.28C164.715 78.8533 165.222 78.2267 165.595 77.4C165.968 76.5467 166.155 75.4667 166.155 74.16C166.155 72.2133 165.755 70.7867 164.955 69.88C164.155 68.9467 163.102 68.48 161.795 68.48C160.942 68.48 160.182 68.68 159.515 69.08C158.875 69.48 158.368 70.1067 157.995 70.96C157.648 71.7867 157.475 72.8533 157.475 74.16C157.475 76.1067 157.875 77.56 158.675 78.52C159.475 79.4533 160.515 79.92 161.795 79.92ZM179.689 84.2C178.623 84.2 177.769 83.88 177.129 83.24C176.516 82.6 176.209 81.7733 176.209 80.76C176.209 79.7733 176.516 78.9733 177.129 78.36C177.769 77.72 178.623 77.4 179.689 77.4C180.756 77.4 181.583 77.72 182.169 78.36C182.783 78.9733 183.089 79.7733 183.089 80.76C183.089 81.7733 182.783 82.6 182.169 83.24C181.583 83.88 180.756 84.2 179.689 84.2Z" fill="#11AEC6"/>
</svg>
