<svg width="182" height="92" viewBox="0 0 182 92" fill="none" xmlns="http://www.w3.org/2000/svg">
<path d="M27.6778 29.44C26.5578 29.44 25.4111 29.3467 24.2378 29.16C23.0911 29 21.9845 28.76 20.9178 28.44C19.8778 28.12 18.9445 27.72 18.1178 27.24C17.5311 26.92 17.1178 26.5067 16.8778 26C16.6378 25.4667 16.5445 24.9333 16.5978 24.4C16.6778 23.8667 16.8778 23.4 17.1978 23C17.5445 22.5733 17.9711 22.3067 18.4778 22.2C19.0111 22.0667 19.5978 22.16 20.2378 22.48C21.3311 23.0933 22.5178 23.5467 23.7978 23.84C25.1045 24.1333 26.3978 24.28 27.6778 24.28C29.6245 24.28 31.0111 23.9867 31.8378 23.4C32.6645 22.7867 33.0778 22.0267 33.0778 21.12C33.0778 20.3467 32.7845 19.7333 32.1978 19.28C31.6111 18.8267 30.5845 18.44 29.1178 18.12L24.5978 17.16C22.0378 16.6267 20.1311 15.72 18.8778 14.44C17.6511 13.1333 17.0378 11.4267 17.0378 9.32C17.0378 7.98667 17.3178 6.77333 17.8778 5.68C18.4378 4.58667 19.2245 3.64 20.2378 2.84C21.2511 2.04 22.4511 1.42667 23.8378 0.999998C25.2511 0.573332 26.7978 0.359999 28.4778 0.359999C29.9711 0.359999 31.4378 0.546666 32.8778 0.919999C34.3178 1.26667 35.5845 1.78667 36.6778 2.48C37.2111 2.8 37.5711 3.21333 37.7578 3.72C37.9711 4.2 38.0378 4.69333 37.9578 5.2C37.9045 5.68 37.7045 6.10667 37.3578 6.48C37.0378 6.85333 36.6245 7.09333 36.1178 7.2C35.6111 7.30667 34.9978 7.18667 34.2778 6.84C33.3978 6.38667 32.4645 6.05333 31.4778 5.84C30.4911 5.62667 29.4778 5.52 28.4378 5.52C27.3178 5.52 26.3578 5.66667 25.5578 5.96C24.7845 6.25333 24.1845 6.66667 23.7578 7.2C23.3578 7.73333 23.1578 8.34667 23.1578 9.04C23.1578 9.81333 23.4378 10.44 23.9978 10.92C24.5578 11.4 25.5311 11.7867 26.9178 12.08L31.4378 13.04C34.0511 13.6 35.9978 14.5067 37.2778 15.76C38.5578 16.9867 39.1978 18.6133 39.1978 20.64C39.1978 21.9733 38.9311 23.1867 38.3978 24.28C37.8645 25.3467 37.0911 26.2667 36.0778 27.04C35.0645 27.8133 33.8511 28.4133 32.4378 28.84C31.0245 29.24 29.4378 29.44 27.6778 29.44ZM52.9028 29.44C50.5828 29.44 48.5828 29.0267 46.9028 28.2C45.2495 27.3467 43.9695 26.16 43.0628 24.64C42.1828 23.0933 41.7428 21.28 41.7428 19.2C41.7428 17.1733 42.1695 15.4 43.0228 13.88C43.8761 12.3333 45.0628 11.1333 46.5828 10.28C48.1295 9.4 49.8761 8.96 51.8228 8.96C53.2361 8.96 54.5161 9.2 55.6628 9.68C56.8095 10.1333 57.7961 10.8 58.6228 11.68C59.4495 12.5333 60.0761 13.5867 60.5028 14.84C60.9295 16.0667 61.1428 17.44 61.1428 18.96C61.1428 19.4667 60.9828 19.8533 60.6628 20.12C60.3428 20.36 59.8761 20.48 59.2628 20.48H46.7028V17.36H56.7828L56.1428 17.92C56.1428 16.8267 55.9828 15.92 55.6628 15.2C55.3428 14.4533 54.8761 13.8933 54.2628 13.52C53.6761 13.1467 52.9428 12.96 52.0628 12.96C51.0761 12.96 50.2361 13.1867 49.5428 13.64C48.8495 14.0933 48.3161 14.7467 47.9428 15.6C47.5695 16.4533 47.3828 17.48 47.3828 18.68V19C47.3828 21.0267 47.8495 22.52 48.7828 23.48C49.7428 24.44 51.1561 24.92 53.0228 24.92C53.6628 24.92 54.3961 24.84 55.2228 24.68C56.0495 24.52 56.8228 24.2667 57.5428 23.92C58.1561 23.6267 58.7028 23.5333 59.1828 23.64C59.6628 23.72 60.0361 23.9333 60.3028 24.28C60.5695 24.6267 60.7161 25.0267 60.7428 25.48C60.7961 25.9333 60.7028 26.3867 60.4628 26.84C60.2228 27.2667 59.8228 27.6267 59.2628 27.92C58.3561 28.4267 57.3295 28.8 56.1828 29.04C55.0628 29.3067 53.9695 29.44 52.9028 29.44ZM71.7359 29.44C69.3626 29.44 67.5893 28.7867 66.4159 27.48C65.2426 26.1467 64.6559 24.1733 64.6559 21.56V3.52C64.6559 2.50667 64.9093 1.74667 65.4159 1.24C65.9493 0.706665 66.7093 0.439998 67.6959 0.439998C68.6559 0.439998 69.3893 0.706665 69.8959 1.24C70.4293 1.74667 70.6959 2.50667 70.6959 3.52V21.32C70.6959 22.4133 70.9226 23.2267 71.3759 23.76C71.8559 24.2667 72.4826 24.52 73.2559 24.52C73.4693 24.52 73.6693 24.5067 73.8559 24.48C74.0426 24.4533 74.2426 24.44 74.4559 24.44C74.8826 24.3867 75.1759 24.52 75.3359 24.84C75.5226 25.1333 75.6159 25.7333 75.6159 26.64C75.6159 27.44 75.4559 28.0533 75.1359 28.48C74.8159 28.88 74.3226 29.1467 73.6559 29.28C73.3893 29.3067 73.0826 29.3333 72.7359 29.36C72.3893 29.4133 72.0559 29.44 71.7359 29.44ZM87.9809 29.44C85.6609 29.44 83.6609 29.0267 81.9809 28.2C80.3276 27.3467 79.0476 26.16 78.1409 24.64C77.2609 23.0933 76.8209 21.28 76.8209 19.2C76.8209 17.1733 77.2476 15.4 78.1009 13.88C78.9543 12.3333 80.1409 11.1333 81.6609 10.28C83.2076 9.4 84.9543 8.96 86.9009 8.96C88.3143 8.96 89.5943 9.2 90.7409 9.68C91.8876 10.1333 92.8743 10.8 93.7009 11.68C94.5276 12.5333 95.1543 13.5867 95.5809 14.84C96.0076 16.0667 96.2209 17.44 96.2209 18.96C96.2209 19.4667 96.0609 19.8533 95.7409 20.12C95.4209 20.36 94.9543 20.48 94.3409 20.48H81.7809V17.36H91.8609L91.2209 17.92C91.2209 16.8267 91.0609 15.92 90.7409 15.2C90.4209 14.4533 89.9543 13.8933 89.3409 13.52C88.7543 13.1467 88.0209 12.96 87.1409 12.96C86.1543 12.96 85.3143 13.1867 84.6209 13.64C83.9276 14.0933 83.3943 14.7467 83.0209 15.6C82.6476 16.4533 82.4609 17.48 82.4609 18.68V19C82.4609 21.0267 82.9276 22.52 83.8609 23.48C84.8209 24.44 86.2343 24.92 88.1009 24.92C88.7409 24.92 89.4743 24.84 90.3009 24.68C91.1276 24.52 91.9009 24.2667 92.6209 23.92C93.2343 23.6267 93.7809 23.5333 94.2609 23.64C94.7409 23.72 95.1143 23.9333 95.3809 24.28C95.6476 24.6267 95.7943 25.0267 95.8209 25.48C95.8743 25.9333 95.7809 26.3867 95.5409 26.84C95.3009 27.2667 94.9009 27.6267 94.3409 27.92C93.4343 28.4267 92.4076 28.8 91.2609 29.04C90.1409 29.3067 89.0476 29.44 87.9809 29.44ZM109.294 29.44C107.161 29.44 105.294 29.0267 103.694 28.2C102.121 27.3467 100.907 26.1467 100.054 24.6C99.2007 23.0533 98.7741 21.2267 98.7741 19.12C98.7741 17.5467 99.0141 16.1333 99.4941 14.88C99.9741 13.6267 100.667 12.56 101.574 11.68C102.507 10.8 103.627 10.1333 104.934 9.68C106.241 9.2 107.694 8.96 109.294 8.96C110.121 8.96 111.001 9.06667 111.934 9.28C112.867 9.46667 113.787 9.8 114.694 10.28C115.227 10.52 115.587 10.8667 115.774 11.32C115.987 11.7467 116.067 12.2 116.014 12.68C115.961 13.1333 115.787 13.5467 115.494 13.92C115.227 14.2667 114.881 14.5067 114.454 14.64C114.027 14.7467 113.547 14.6667 113.014 14.4C112.507 14.1067 111.974 13.8933 111.414 13.76C110.881 13.6267 110.374 13.56 109.894 13.56C109.094 13.56 108.387 13.6933 107.774 13.96C107.161 14.2 106.641 14.56 106.214 15.04C105.814 15.4933 105.494 16.0667 105.254 16.76C105.041 17.4533 104.934 18.2533 104.934 19.16C104.934 20.92 105.361 22.3067 106.214 23.32C107.094 24.3067 108.321 24.8 109.894 24.8C110.374 24.8 110.881 24.7467 111.414 24.64C111.947 24.5067 112.481 24.2933 113.014 24C113.547 23.7333 114.027 23.6667 114.454 23.8C114.881 23.9333 115.214 24.1867 115.454 24.56C115.721 24.9067 115.867 25.32 115.894 25.8C115.947 26.2533 115.867 26.7067 115.654 27.16C115.467 27.5867 115.121 27.92 114.614 28.16C113.707 28.6133 112.801 28.9333 111.894 29.12C110.987 29.3333 110.121 29.44 109.294 29.44ZM128.593 29.44C126.753 29.44 125.206 29.1333 123.953 28.52C122.726 27.9067 121.806 27.0133 121.193 25.84C120.606 24.6667 120.313 23.1867 120.313 21.4V13.88H118.633C117.886 13.88 117.299 13.68 116.873 13.28C116.473 12.88 116.273 12.3333 116.273 11.64C116.273 10.8933 116.473 10.3333 116.873 9.96C117.299 9.56 117.886 9.36 118.633 9.36H120.313V6.32C120.313 5.30667 120.579 4.54667 121.113 4.04C121.646 3.50667 122.393 3.24 123.353 3.24C124.339 3.24 125.086 3.50667 125.593 4.04C126.099 4.54667 126.353 5.30667 126.353 6.32V9.36H130.153C130.899 9.36 131.473 9.56 131.873 9.96C132.273 10.3333 132.473 10.8933 132.473 11.64C132.473 12.3333 132.273 12.88 131.873 13.28C131.473 13.68 130.899 13.88 130.153 13.88H126.353V21.16C126.353 22.28 126.606 23.12 127.113 23.68C127.646 24.24 128.486 24.52 129.633 24.52C130.033 24.52 130.406 24.48 130.753 24.4C131.099 24.32 131.419 24.2667 131.713 24.24C132.086 24.2133 132.393 24.3333 132.633 24.6C132.873 24.84 132.993 25.3867 132.993 26.24C132.993 26.88 132.886 27.44 132.673 27.92C132.459 28.4 132.086 28.7467 131.553 28.96C131.206 29.0933 130.726 29.2 130.113 29.28C129.526 29.3867 129.019 29.44 128.593 29.44ZM152.937 29.44C151.497 29.44 150.203 29.16 149.057 28.6C147.91 28.04 147.017 27.28 146.377 26.32C145.737 25.36 145.417 24.28 145.417 23.08C145.417 21.64 145.79 20.5067 146.537 19.68C147.283 18.8267 148.497 18.2267 150.177 17.88C151.857 17.5067 154.083 17.32 156.857 17.32H158.977V20.44H156.897C155.537 20.44 154.43 20.52 153.577 20.68C152.75 20.8133 152.15 21.0533 151.777 21.4C151.43 21.7467 151.257 22.2267 151.257 22.84C151.257 23.5867 151.51 24.2 152.017 24.68C152.55 25.16 153.31 25.4 154.297 25.4C155.07 25.4 155.75 25.2267 156.337 24.88C156.95 24.5067 157.43 24.0133 157.777 23.4C158.123 22.76 158.297 22.04 158.297 21.24V16.64C158.297 15.4667 158.03 14.64 157.497 14.16C156.963 13.6533 156.057 13.4 154.777 13.4C154.057 13.4 153.27 13.4933 152.417 13.68C151.59 13.84 150.67 14.12 149.657 14.52C149.07 14.7867 148.55 14.8533 148.097 14.72C147.643 14.56 147.297 14.2933 147.057 13.92C146.817 13.52 146.697 13.0933 146.697 12.64C146.697 12.16 146.83 11.7067 147.097 11.28C147.363 10.8267 147.803 10.4933 148.417 10.28C149.67 9.77333 150.843 9.42667 151.937 9.24C153.057 9.05333 154.083 8.96 155.017 8.96C157.07 8.96 158.75 9.26667 160.057 9.88C161.39 10.4667 162.39 11.3867 163.057 12.64C163.723 13.8667 164.057 15.4533 164.057 17.4V26.28C164.057 27.2667 163.817 28.0267 163.337 28.56C162.857 29.0933 162.163 29.36 161.257 29.36C160.35 29.36 159.643 29.0933 159.137 28.56C158.657 28.0267 158.417 27.2667 158.417 26.28V24.8L158.697 25.04C158.537 25.9467 158.19 26.7333 157.657 27.4C157.15 28.04 156.497 28.5467 155.697 28.92C154.897 29.2667 153.977 29.44 152.937 29.44ZM3.55531 91.56C2.56865 91.56 1.80865 91.2933 1.27531 90.76C0.768646 90.2533 0.515313 89.4933 0.515313 88.48V67.08C0.515313 66.0933 0.768646 65.3467 1.27531 64.84C1.80865 64.3067 2.54198 64.04 3.47531 64.04C4.46198 64.04 5.20865 64.3067 5.71531 64.84C6.22198 65.3467 6.47531 66.0933 6.47531 67.08V69.8L6.03531 68.24C6.43531 66.96 7.23531 65.9333 8.43531 65.16C9.66198 64.36 11.062 63.96 12.6353 63.96C14.342 63.96 15.8353 64.3733 17.1153 65.2C18.422 66.0267 19.4353 67.2 20.1553 68.72C20.8753 70.24 21.2353 72.0533 21.2353 74.16C21.2353 76.2667 20.8753 78.0933 20.1553 79.64C19.4353 81.1867 18.4353 82.3733 17.1553 83.2C15.8753 84.0267 14.3686 84.44 12.6353 84.44C11.0886 84.44 9.71531 84.0667 8.51531 83.32C7.31531 82.5467 6.50198 81.5467 6.07531 80.32H6.55531V88.48C6.55531 89.4933 6.28865 90.2533 5.75531 90.76C5.24865 91.2933 4.51531 91.56 3.55531 91.56ZM10.8353 79.92C11.6886 79.92 12.4353 79.7067 13.0753 79.28C13.742 78.8533 14.2486 78.2267 14.5953 77.4C14.9686 76.5467 15.1553 75.4667 15.1553 74.16C15.1553 72.2133 14.7553 70.7867 13.9553 69.88C13.1553 68.9467 12.1153 68.48 10.8353 68.48C9.98198 68.48 9.22198 68.68 8.55531 69.08C7.91531 69.48 7.40865 70.1067 7.03531 70.96C6.66198 71.7867 6.47531 72.8533 6.47531 74.16C6.47531 76.1067 6.87531 77.56 7.67531 78.52C8.47531 79.4533 9.52865 79.92 10.8353 79.92ZM27.9694 84.32C26.9827 84.32 26.2227 84.04 25.6894 83.48C25.1827 82.8933 24.9294 82.08 24.9294 81.04V67.36C24.9294 66.2933 25.1827 65.48 25.6894 64.92C26.2227 64.3333 26.9827 64.04 27.9694 64.04C28.9294 64.04 29.6627 64.3333 30.1694 64.92C30.7027 65.48 30.9694 66.2933 30.9694 67.36V81.04C30.9694 82.08 30.716 82.8933 30.2094 83.48C29.7027 84.04 28.956 84.32 27.9694 84.32ZM27.9694 60.76C26.8494 60.76 25.9827 60.5067 25.3694 60C24.7827 59.4667 24.4894 58.72 24.4894 57.76C24.4894 56.7733 24.7827 56.0267 25.3694 55.52C25.9827 54.9867 26.8494 54.72 27.9694 54.72C29.0894 54.72 29.9427 54.9867 30.5294 55.52C31.116 56.0267 31.4094 56.7733 31.4094 57.76C31.4094 58.72 31.116 59.4667 30.5294 60C29.9427 60.5067 29.0894 60.76 27.9694 60.76ZM38.6725 84.36C37.6858 84.36 36.9258 84.0933 36.3925 83.56C35.8858 83.0267 35.6325 82.2667 35.6325 81.28V67.08C35.6325 66.0933 35.8858 65.3467 36.3925 64.84C36.9258 64.3067 37.6592 64.04 38.5925 64.04C39.5525 64.04 40.2858 64.3067 40.7925 64.84C41.2992 65.3467 41.5525 66.0933 41.5525 67.08V69.36L41.1125 68.04C41.7258 66.7333 42.6325 65.7333 43.8325 65.04C45.0592 64.32 46.4458 63.96 47.9925 63.96C49.5658 63.96 50.8592 64.2667 51.8725 64.88C52.8858 65.4667 53.6458 66.3733 54.1525 67.6C54.6592 68.8 54.9125 70.3333 54.9125 72.2V81.28C54.9125 82.2667 54.6458 83.0267 54.1125 83.56C53.6058 84.0933 52.8592 84.36 51.8725 84.36C50.9125 84.36 50.1658 84.0933 49.6325 83.56C49.1258 83.0267 48.8725 82.2667 48.8725 81.28V72.48C48.8725 71.12 48.6192 70.1467 48.1125 69.56C47.6325 68.9467 46.8858 68.64 45.8725 68.64C44.5925 68.64 43.5658 69.04 42.7925 69.84C42.0458 70.64 41.6725 71.7067 41.6725 73.04V81.28C41.6725 83.3333 40.6725 84.36 38.6725 84.36ZM62.4616 84.36C61.4749 84.36 60.7149 84.0933 60.1816 83.56C59.6749 83.0267 59.4216 82.2667 59.4216 81.28V58.52C59.4216 57.5067 59.6749 56.7467 60.1816 56.24C60.7149 55.7067 61.4749 55.44 62.4616 55.44C63.4216 55.44 64.1549 55.7067 64.6616 56.24C65.1949 56.7467 65.4616 57.5067 65.4616 58.52V72.48H65.5416L71.3416 66.04C71.9282 65.3733 72.4616 64.88 72.9416 64.56C73.4482 64.2133 74.1149 64.04 74.9416 64.04C75.7682 64.04 76.3949 64.2533 76.8216 64.68C77.2749 65.1067 77.5016 65.6267 77.5016 66.24C77.5282 66.8267 77.2749 67.4267 76.7416 68.04L70.6216 74.88V72.6L77.4216 80.44C77.9282 81.0533 78.1416 81.6667 78.0616 82.28C78.0082 82.8933 77.7416 83.4 77.2616 83.8C76.7816 84.1733 76.1682 84.36 75.4216 84.36C74.5149 84.36 73.7816 84.1867 73.2216 83.84C72.6882 83.4933 72.1416 82.96 71.5816 82.24L65.5416 75.52H65.4616V81.28C65.4616 83.3333 64.4616 84.36 62.4616 84.36ZM102.458 84.44C100.325 84.44 98.4581 84.0267 96.8581 83.2C95.2848 82.3467 94.0715 81.1467 93.2181 79.6C92.3648 78.0533 91.9381 76.2267 91.9381 74.12C91.9381 72.5467 92.1781 71.1333 92.6581 69.88C93.1381 68.6267 93.8315 67.56 94.7381 66.68C95.6715 65.8 96.7915 65.1333 98.0981 64.68C99.4048 64.2 100.858 63.96 102.458 63.96C103.285 63.96 104.165 64.0667 105.098 64.28C106.031 64.4667 106.951 64.8 107.858 65.28C108.391 65.52 108.751 65.8667 108.938 66.32C109.151 66.7467 109.231 67.2 109.178 67.68C109.125 68.1333 108.951 68.5467 108.658 68.92C108.391 69.2667 108.045 69.5067 107.618 69.64C107.191 69.7467 106.711 69.6667 106.178 69.4C105.671 69.1067 105.138 68.8933 104.578 68.76C104.045 68.6267 103.538 68.56 103.058 68.56C102.258 68.56 101.551 68.6933 100.938 68.96C100.325 69.2 99.8048 69.56 99.3781 70.04C98.9781 70.4933 98.6581 71.0667 98.4181 71.76C98.2048 72.4533 98.0981 73.2533 98.0981 74.16C98.0981 75.92 98.5248 77.3067 99.3781 78.32C100.258 79.3067 101.485 79.8 103.058 79.8C103.538 79.8 104.045 79.7467 104.578 79.64C105.111 79.5067 105.645 79.2933 106.178 79C106.711 78.7333 107.191 78.6667 107.618 78.8C108.045 78.9333 108.378 79.1867 108.618 79.56C108.885 79.9067 109.031 80.32 109.058 80.8C109.111 81.2533 109.031 81.7067 108.818 82.16C108.631 82.5867 108.285 82.92 107.778 83.16C106.871 83.6133 105.965 83.9333 105.058 84.12C104.151 84.3333 103.285 84.44 102.458 84.44ZM118.562 84.44C117.122 84.44 115.828 84.16 114.682 83.6C113.535 83.04 112.642 82.28 112.002 81.32C111.362 80.36 111.042 79.28 111.042 78.08C111.042 76.64 111.415 75.5067 112.162 74.68C112.908 73.8267 114.122 73.2267 115.802 72.88C117.482 72.5067 119.708 72.32 122.482 72.32H124.602V75.44H122.522C121.162 75.44 120.055 75.52 119.202 75.68C118.375 75.8133 117.775 76.0533 117.402 76.4C117.055 76.7467 116.882 77.2267 116.882 77.84C116.882 78.5867 117.135 79.2 117.642 79.68C118.175 80.16 118.935 80.4 119.922 80.4C120.695 80.4 121.375 80.2267 121.962 79.88C122.575 79.5067 123.055 79.0133 123.402 78.4C123.748 77.76 123.922 77.04 123.922 76.24V71.64C123.922 70.4667 123.655 69.64 123.122 69.16C122.588 68.6533 121.682 68.4 120.402 68.4C119.682 68.4 118.895 68.4933 118.042 68.68C117.215 68.84 116.295 69.12 115.282 69.52C114.695 69.7867 114.175 69.8533 113.722 69.72C113.268 69.56 112.922 69.2933 112.682 68.92C112.442 68.52 112.322 68.0933 112.322 67.64C112.322 67.16 112.455 66.7067 112.722 66.28C112.988 65.8267 113.428 65.4933 114.042 65.28C115.295 64.7733 116.468 64.4267 117.562 64.24C118.682 64.0533 119.708 63.96 120.642 63.96C122.695 63.96 124.375 64.2667 125.682 64.88C127.015 65.4667 128.015 66.3867 128.682 67.64C129.348 68.8667 129.682 70.4533 129.682 72.4V81.28C129.682 82.2667 129.442 83.0267 128.962 83.56C128.482 84.0933 127.788 84.36 126.882 84.36C125.975 84.36 125.268 84.0933 124.762 83.56C124.282 83.0267 124.042 82.2667 124.042 81.28V79.8L124.322 80.04C124.162 80.9467 123.815 81.7333 123.282 82.4C122.775 83.04 122.122 83.5467 121.322 83.92C120.522 84.2667 119.602 84.44 118.562 84.44ZM137.307 84.36C136.294 84.36 135.521 84.0933 134.987 83.56C134.454 83.0267 134.187 82.2667 134.187 81.28V67.08C134.187 66.0933 134.441 65.3467 134.947 64.84C135.481 64.3067 136.214 64.04 137.147 64.04C138.107 64.04 138.841 64.3067 139.347 64.84C139.854 65.3467 140.107 66.0933 140.107 67.08V69.16H139.707C140.027 67.56 140.734 66.32 141.827 65.44C142.921 64.56 144.334 64.0667 146.067 63.96C146.734 63.9067 147.241 64.08 147.587 64.48C147.961 64.8533 148.161 65.48 148.187 66.36C148.241 67.1867 148.067 67.84 147.667 68.32C147.294 68.8 146.654 69.0933 145.747 69.2L144.827 69.28C143.307 69.4133 142.174 69.8533 141.427 70.6C140.707 71.3467 140.347 72.4267 140.347 73.84V81.28C140.347 82.2667 140.081 83.0267 139.547 83.56C139.041 84.0933 138.294 84.36 137.307 84.36ZM157.96 84.44C156.253 84.44 154.747 84.0267 153.44 83.2C152.16 82.3733 151.16 81.1867 150.44 79.64C149.72 78.0933 149.36 76.2667 149.36 74.16C149.36 72.0533 149.72 70.24 150.44 68.72C151.16 67.2 152.16 66.0267 153.44 65.2C154.747 64.3733 156.253 63.96 157.96 63.96C159.507 63.96 160.867 64.3333 162.04 65.08C163.24 65.8267 164.053 66.8 164.48 68H164.04V58.52C164.04 57.5067 164.293 56.7467 164.8 56.24C165.307 55.7067 166.053 55.44 167.04 55.44C168 55.44 168.747 55.7067 169.28 56.24C169.813 56.7467 170.08 57.5067 170.08 58.52V81.28C170.08 82.2667 169.813 83.0267 169.28 83.56C168.773 84.0933 168.04 84.36 167.08 84.36C166.12 84.36 165.373 84.0933 164.84 83.56C164.333 83.0267 164.08 82.2667 164.08 81.28V78.56L164.52 80.12C164.147 81.4267 163.347 82.48 162.12 83.28C160.92 84.0533 159.533 84.44 157.96 84.44ZM159.76 79.92C160.64 79.92 161.4 79.7067 162.04 79.28C162.68 78.8533 163.187 78.2267 163.56 77.4C163.933 76.5467 164.12 75.4667 164.12 74.16C164.12 72.2133 163.72 70.7867 162.92 69.88C162.12 68.9467 161.067 68.48 159.76 68.48C158.907 68.48 158.147 68.68 157.48 69.08C156.84 69.48 156.333 70.1067 155.96 70.96C155.613 71.7867 155.44 72.8533 155.44 74.16C155.44 76.1067 155.84 77.56 156.64 78.52C157.44 79.4533 158.48 79.92 159.76 79.92ZM177.654 84.2C176.587 84.2 175.734 83.88 175.094 83.24C174.481 82.6 174.174 81.7733 174.174 80.76C174.174 79.7733 174.481 78.9733 175.094 78.36C175.734 77.72 176.587 77.4 177.654 77.4C178.721 77.4 179.547 77.72 180.134 78.36C180.747 78.9733 181.054 79.7733 181.054 80.76C181.054 81.7733 180.747 82.6 180.134 83.24C179.547 83.88 178.721 84.2 177.654 84.2Z" fill="#11AEC6"/>
</svg>
